<svg width="1302" height="556" viewBox="0 0 1302 556" fill="none" xmlns="http://www.w3.org/2000/svg">
<line opacity="0.16" x1="50.5" y1="556" x2="50.5" y2="1.71894e-10" stroke="#455A64"/>
<line opacity="0.16" x1="170.5" y1="556" x2="170.5" y2="1.71894e-10" stroke="#455A64"/>
<line opacity="0.16" x1="290.5" y1="556" x2="290.5" y2="1.71894e-10" stroke="#455A64"/>
<line opacity="0.16" x1="410.5" y1="556" x2="410.5" y2="1.71894e-10" stroke="#455A64"/>
<line opacity="0.16" x1="530.5" y1="556" x2="530.5" y2="1.71894e-10" stroke="#455A64"/>
<line opacity="0.16" x1="650.5" y1="556" x2="650.5" y2="1.71894e-10" stroke="#455A64"/>
<line opacity="0.16" x1="770.5" y1="556" x2="770.5" y2="1.71894e-10" stroke="#455A64"/>
<line opacity="0.16" x1="890.5" y1="556" x2="890.5" y2="1.71894e-10" stroke="#455A64"/>
<line opacity="0.16" x1="1010.5" y1="556" x2="1010.5" y2="1.71894e-10" stroke="#455A64"/>
<line opacity="0.16" x1="1130.5" y1="556" x2="1130.5" y2="1.71894e-10" stroke="#455A64"/>
<line opacity="0.16" x1="1250.5" y1="556" x2="1250.5" y2="1.71894e-10" stroke="#455A64"/>
<line opacity="0.16" y1="395.5" x2="1302" y2="395.5" stroke="#455A64"/>
<line opacity="0.16" y1="515.5" x2="1302" y2="515.5" stroke="#455A64"/>
<line opacity="0.16" y1="275.5" x2="1302" y2="275.5" stroke="#455A64"/>
<line opacity="0.16" y1="155.5" x2="1302" y2="155.5" stroke="#455A64"/>
<line opacity="0.16" y1="35.5" x2="1302" y2="35.5" stroke="#455A64"/>
</svg>
