<svg width="30" height="30" viewBox="0 0 30 30" fill="none" xmlns="http://www.w3.org/2000/svg">
<path d="M15 29.0625C22.7665 29.0625 29.0625 22.7665 29.0625 15C29.0625 7.23351 22.7665 0.937515 15 0.937515C7.2335 0.937515 0.9375 7.23351 0.9375 15C0.9375 22.7665 7.2335 29.0625 15 29.0625Z" fill="url(#paint0_linear_2151_4433)"/>
<path d="M17.9891 7.18752H12.0203C9.35781 7.18752 7.19531 9.35002 7.19531 12.0125V17.9813C7.19531 20.6438 9.35781 22.8063 12.0203 22.8063H17.9891C20.6516 22.8063 22.8141 20.6438 22.8141 17.9813V12.0125C22.8141 9.35002 20.6516 7.18752 17.9891 7.18752ZM21.0703 17.9875C21.0703 19.6875 19.6891 21.075 17.9828 21.075H12.0141C10.3141 21.075 8.92656 19.6938 8.92656 17.9875V12.0188C8.92656 10.3188 10.3078 8.93127 12.0141 8.93127H17.9828C19.6828 8.93127 21.0703 10.3125 21.0703 12.0188V17.9875Z" fill="white"/>
<path d="M15.0016 11.0063C12.8016 11.0063 11.0078 12.8 11.0078 15C11.0078 17.2 12.8016 18.9938 15.0016 18.9938C17.2016 18.9938 18.9953 17.2 18.9953 15C18.9953 12.8 17.2016 11.0063 15.0016 11.0063ZM15.0016 17.425C13.6641 17.425 12.5766 16.3375 12.5766 15C12.5766 13.6625 13.6641 12.575 15.0016 12.575C16.3391 12.575 17.4266 13.6625 17.4266 15C17.4266 16.3375 16.3391 17.425 15.0016 17.425Z" fill="white"/>
<path d="M19.2963 11.4441C19.6642 11.3845 19.9142 11.0378 19.8545 10.6699C19.7949 10.3019 19.4482 10.052 19.0803 10.1117C18.7123 10.1713 18.4624 10.5179 18.5221 10.8859C18.5817 11.2538 18.9283 11.5037 19.2963 11.4441Z" fill="white"/>
<defs>
<linearGradient id="paint0_linear_2151_4433" x1="4.29244" y1="25.7076" x2="24.2768" y2="5.7232" gradientUnits="userSpaceOnUse">
<stop stop-color="#FEE411"/>
<stop offset="0.0518459" stop-color="#FEDB16"/>
<stop offset="0.1381" stop-color="#FEC125"/>
<stop offset="0.2481" stop-color="#FE983D"/>
<stop offset="0.3762" stop-color="#FE5F5E"/>
<stop offset="0.5" stop-color="#FE2181"/>
<stop offset="1" stop-color="#9000DC"/>
</linearGradient>
</defs>
</svg>
