<svg width="24" height="25" viewBox="0 0 24 25" fill="none" xmlns="http://www.w3.org/2000/svg">
<g clip-path="url(#clip0_2151_4278)">
<path d="M11.5393 20.5H2.39681C1.51317 20.5 0.796875 19.7837 0.796875 18.9001V17.3H13.0761L11.5393 20.5Z" fill="#D3DCFB"/>
<path d="M21.5984 7.69998V14.4218V18.8999H2.39681C1.51317 18.8999 0.796875 18.1836 0.796875 17.2999V7.69998L11.9977 3.69995L21.5984 7.69998Z" fill="#EBF5FC"/>
<path d="M3.62342 10.9H2.77344C2.56634 10.9 2.39844 10.7321 2.39844 10.525V9.67505C2.39844 9.46796 2.56634 9.30005 2.77344 9.30005H3.62342C3.83052 9.30005 3.99842 9.46796 3.99842 9.67505V10.525C3.99842 10.7321 3.83052 10.9 3.62342 10.9Z" fill="#3C58A0"/>
<path d="M6.82655 10.9H5.97656C5.76947 10.9 5.60156 10.7321 5.60156 10.525V9.67505C5.60156 9.46796 5.76947 9.30005 5.97656 9.30005H6.82655C7.03364 9.30005 7.20155 9.46796 7.20155 9.67505V10.525C7.20155 10.7321 7.03364 10.9 6.82655 10.9Z" fill="#3C58A0"/>
<path d="M10.0219 10.9H9.17188C8.96478 10.9 8.79688 10.7321 8.79688 10.525V9.67505C8.79688 9.46796 8.96478 9.30005 9.17188 9.30005H10.0219C10.229 9.30005 10.3969 9.46796 10.3969 9.67505V10.525C10.3969 10.7321 10.229 10.9 10.0219 10.9Z" fill="#3C58A0"/>
<path d="M13.225 10.9H12.375C12.1679 10.9 12 10.7321 12 10.525V9.67505C12 9.46796 12.1679 9.30005 12.375 9.30005H13.225C13.4321 9.30005 13.6 9.46796 13.6 9.67505V10.525C13.6 10.7321 13.4321 10.9 13.225 10.9Z" fill="#3C58A0"/>
<path d="M16.4203 10.9H15.5703C15.3632 10.9 15.1953 10.7321 15.1953 10.525V9.67505C15.1953 9.46796 15.3632 9.30005 15.5703 9.30005H16.4203C16.6274 9.30005 16.7953 9.46796 16.7953 9.67505V10.525C16.7953 10.7321 16.6274 10.9 16.4203 10.9Z" fill="#3C58A0"/>
<path d="M19.6234 10.9H18.7734C18.5663 10.9 18.3984 10.7321 18.3984 10.525V9.67505C18.3984 9.46796 18.5663 9.30005 18.7734 9.30005H19.6234C19.8305 9.30005 19.9984 9.46796 19.9984 9.67505V10.525C19.9984 10.7321 19.8305 10.9 19.6234 10.9Z" fill="#3C58A0"/>
<path d="M3.62342 14.1H2.77344C2.56634 14.1 2.39844 13.9321 2.39844 13.725V12.875C2.39844 12.6679 2.56634 12.5 2.77344 12.5H3.62342C3.83052 12.5 3.99842 12.6679 3.99842 12.875V13.725C3.99842 13.9321 3.83052 14.1 3.62342 14.1Z" fill="#3C58A0"/>
<path d="M6.82655 14.1H5.97656C5.76947 14.1 5.60156 13.9321 5.60156 13.725V12.875C5.60156 12.6679 5.76947 12.5 5.97656 12.5H6.82655C7.03364 12.5 7.20155 12.6679 7.20155 12.875V13.725C7.20155 13.9321 7.03364 14.1 6.82655 14.1Z" fill="#3C58A0"/>
<path d="M10.0219 14.1H9.17188C8.96478 14.1 8.79688 13.9321 8.79688 13.725V12.875C8.79688 12.6679 8.96478 12.5 9.17188 12.5H10.0219C10.229 12.5 10.3969 12.6679 10.3969 12.875V13.725C10.3969 13.9321 10.229 14.1 10.0219 14.1Z" fill="#3C58A0"/>
<path d="M13.6 14.1V12.9C13.6 12.6791 13.4209 12.5 13.2 12.5H12.4C12.1791 12.5 12 12.6791 12 12.9V13.7C12 13.9209 12.1791 14.1 12.4 14.1H13.6Z" fill="#3C58A0"/>
<path d="M3.62342 17.3001H2.77344C2.56634 17.3001 2.39844 17.1322 2.39844 16.9251V16.0751C2.39844 15.868 2.56634 15.7001 2.77344 15.7001H3.62342C3.83052 15.7001 3.99842 15.868 3.99842 16.0751V16.9251C3.99842 17.1322 3.83052 17.3001 3.62342 17.3001Z" fill="#3C58A0"/>
<path d="M6.82655 17.3001H5.97656C5.76947 17.3001 5.60156 17.1322 5.60156 16.9251V16.0751C5.60156 15.868 5.76947 15.7001 5.97656 15.7001H6.82655C7.03364 15.7001 7.20155 15.868 7.20155 16.0751V16.9251C7.20155 17.1322 7.03364 17.3001 6.82655 17.3001Z" fill="#3C58A0"/>
<path d="M10.0219 17.3001H9.17188C8.96478 17.3001 8.79688 17.1322 8.79688 16.9251V16.0751C8.79688 15.868 8.96478 15.7001 9.17188 15.7001H10.0219C10.229 15.7001 10.3969 15.868 10.3969 16.0751V16.9251C10.3969 17.1322 10.229 17.3001 10.0219 17.3001Z" fill="#3C58A0"/>
<path d="M19.6096 9.29993H18.7823C18.7322 9.29993 18.6845 9.30977 18.6406 9.32707C18.7838 9.3836 18.8853 9.52291 18.8853 9.68622V10.5136C18.8853 10.6769 18.7838 10.8162 18.6406 10.8727C18.6845 10.8901 18.7322 10.8999 18.7823 10.8999H19.6096C19.823 10.8999 19.996 10.7269 19.996 10.5136V9.68627C19.9959 9.4729 19.823 9.29993 19.6096 9.29993Z" fill="#2A428C"/>
<path d="M16.4143 9.29993H15.587C15.5369 9.29993 15.4892 9.30977 15.4453 9.32707C15.5885 9.3836 15.69 9.52291 15.69 9.68622V10.5136C15.69 10.6769 15.5885 10.8162 15.4453 10.8727C15.4892 10.8901 15.5369 10.8999 15.587 10.8999H16.4143C16.6277 10.8999 16.8006 10.7269 16.8006 10.5136V9.68627C16.8006 9.4729 16.6277 9.29993 16.4143 9.29993Z" fill="#2A428C"/>
<path d="M13.2112 9.29993H12.3838C12.3338 9.29993 12.2861 9.30977 12.2422 9.32707C12.3854 9.3836 12.4869 9.52291 12.4869 9.68622V10.5136C12.4869 10.6769 12.3854 10.8162 12.2422 10.8727C12.2861 10.8901 12.3338 10.8999 12.3838 10.8999H13.2112C13.4246 10.8999 13.5975 10.7269 13.5975 10.5136V9.68627C13.5975 9.4729 13.4245 9.29993 13.2112 9.29993Z" fill="#2A428C"/>
<path d="M10.0081 9.29993H9.18072C9.13066 9.29993 9.08298 9.30977 9.03906 9.32707C9.18227 9.3836 9.28375 9.52291 9.28375 9.68622V10.5136C9.28375 10.6769 9.18227 10.8162 9.03906 10.8727C9.08298 10.8901 9.13066 10.8999 9.18072 10.8999H10.0081C10.2214 10.8999 10.3944 10.7269 10.3944 10.5136V9.68627C10.3944 9.4729 10.2214 9.29993 10.0081 9.29993Z" fill="#2A428C"/>
<path d="M6.81275 9.29993H5.98541C5.93534 9.29993 5.88767 9.30977 5.84375 9.32707C5.98695 9.3836 6.08839 9.52291 6.08839 9.68622V10.5136C6.08839 10.6769 5.98691 10.8162 5.84375 10.8727C5.88767 10.8901 5.93534 10.8999 5.98541 10.8999H6.81275C7.02612 10.8999 7.19909 10.7269 7.19909 10.5136V9.68627C7.19909 9.4729 7.02612 9.29993 6.81275 9.29993Z" fill="#2A428C"/>
<path d="M3.60962 9.29993H2.78228C2.73222 9.29993 2.68455 9.30977 2.64062 9.32707C2.78383 9.3836 2.88531 9.52291 2.88531 9.68622V10.5136C2.88531 10.6769 2.78383 10.8162 2.64062 10.8727C2.68455 10.8901 2.73222 10.8999 2.78228 10.8999H3.60962C3.823 10.8999 3.99597 10.7269 3.99597 10.5136V9.68627C3.99592 9.4729 3.82295 9.29993 3.60962 9.29993Z" fill="#2A428C"/>
<path d="M3.60962 12.5H2.78228C2.73222 12.5 2.68455 12.5098 2.64062 12.5271C2.78383 12.5837 2.88531 12.723 2.88531 12.8863V13.7137C2.88531 13.877 2.78383 14.0163 2.64062 14.0728C2.68455 14.0902 2.73222 14.1 2.78228 14.1H3.60962C3.823 14.1 3.99597 13.9271 3.99597 13.7137V12.8863C3.99592 12.673 3.82295 12.5 3.60962 12.5Z" fill="#2A428C"/>
<path d="M3.60962 15.7001H2.78228C2.73222 15.7001 2.68455 15.7099 2.64062 15.7272C2.78383 15.7837 2.88531 15.9231 2.88531 16.0864V16.9138C2.88531 17.0771 2.78383 17.2164 2.64062 17.2729C2.68455 17.2903 2.73222 17.3001 2.78228 17.3001H3.60962C3.823 17.3001 3.99597 17.1271 3.99597 16.9138V16.0864C3.99592 15.873 3.82295 15.7001 3.60962 15.7001Z" fill="#2A428C"/>
<path d="M6.81275 12.5H5.98541C5.93534 12.5 5.88767 12.5098 5.84375 12.5271C5.98695 12.5837 6.08839 12.723 6.08839 12.8863V13.7137C6.08839 13.877 5.98691 14.0163 5.84375 14.0728C5.88767 14.0902 5.93534 14.1 5.98541 14.1H6.81275C7.02612 14.1 7.19909 13.9271 7.19909 13.7137V12.8863C7.19909 12.673 7.02612 12.5 6.81275 12.5Z" fill="#2A428C"/>
<path d="M6.81275 15.7001H5.98541C5.93534 15.7001 5.88767 15.7099 5.84375 15.7272C5.98695 15.7837 6.08839 15.9231 6.08839 16.0864V16.9138C6.08839 17.0771 5.98691 17.2164 5.84375 17.2729C5.88767 17.2903 5.93534 17.3001 5.98541 17.3001H6.81275C7.02612 17.3001 7.19909 17.1271 7.19909 16.9138V16.0864C7.19909 15.873 7.02612 15.7001 6.81275 15.7001Z" fill="#2A428C"/>
<path d="M10.0081 12.5H9.18072C9.13066 12.5 9.08298 12.5098 9.03906 12.5271C9.18227 12.5837 9.28375 12.723 9.28375 12.8863V13.7137C9.28375 13.877 9.18227 14.0163 9.03906 14.0728C9.08298 14.0902 9.13066 14.1 9.18072 14.1H10.0081C10.2214 14.1 10.3944 13.9271 10.3944 13.7137V12.8863C10.3944 12.673 10.2214 12.5 10.0081 12.5Z" fill="#2A428C"/>
<path d="M13.5975 14.1V12.8863C13.5975 12.6729 13.4246 12.5 13.2112 12.5H12.3838C12.3338 12.5 12.2861 12.5098 12.2422 12.5271C12.3854 12.5837 12.4869 12.723 12.4869 12.8863V13.7137C12.4869 13.877 12.3854 14.0163 12.2422 14.0728C12.2861 14.0902 12.3338 14.1 12.3838 14.1H13.5975V14.1Z" fill="#2A428C"/>
<path d="M10.0081 15.7001H9.18072C9.13066 15.7001 9.08298 15.7099 9.03906 15.7272C9.18227 15.7837 9.28375 15.9231 9.28375 16.0864V16.9138C9.28375 17.0771 9.18227 17.2164 9.03906 17.2729C9.08298 17.2903 9.13066 17.3001 9.18072 17.3001H10.0081C10.2214 17.3001 10.3944 17.1271 10.3944 16.9138V16.0864C10.3944 15.873 10.2214 15.7001 10.0081 15.7001Z" fill="#2A428C"/>
<path d="M20.4844 7.23694V14.4218V18.9H21.5958V14.4218V7.70002L20.4844 7.23694Z" fill="#D3DCFB"/>
<path d="M21.5984 7.69994V3.69991C21.5984 2.81627 20.8821 2.09998 19.9985 2.09998H2.39681C1.51317 2.09998 0.796875 2.81627 0.796875 3.69991V7.69994H21.5984Z" fill="#FF4155"/>
<path d="M5.84108 4.0622H4.79966C4.59959 4.0622 4.4375 3.90006 4.4375 3.70005C4.4375 3.50003 4.59964 3.33789 4.79966 3.33789H5.84108C6.04114 3.33789 6.20323 3.50003 6.20323 3.70005C6.20323 3.90006 6.04109 4.0622 5.84108 4.0622Z" fill="#E80054"/>
<path d="M8.39577 4.0622H7.35434C7.15428 4.0622 6.99219 3.90006 6.99219 3.70005C6.99219 3.50003 7.15433 3.33789 7.35434 3.33789H8.39577C8.59583 3.33789 8.75792 3.50003 8.75792 3.70005C8.75792 3.90006 8.59583 4.0622 8.39577 4.0622Z" fill="#E80054"/>
<path d="M15.0443 4.0622H14.0028C13.8027 4.0622 13.6406 3.90006 13.6406 3.70005C13.6406 3.50003 13.8028 3.33789 14.0028 3.33789H15.0443C15.2443 3.33789 15.4064 3.50003 15.4064 3.70005C15.4064 3.90006 15.2443 4.0622 15.0443 4.0622Z" fill="#E80054"/>
<path d="M17.5989 4.0622H16.5575C16.3574 4.0622 16.1953 3.90006 16.1953 3.70005C16.1953 3.50003 16.3575 3.33789 16.5575 3.33789H17.5989C17.799 3.33789 17.9611 3.50003 17.9611 3.70005C17.9611 3.90006 17.799 4.0622 17.5989 4.0622Z" fill="#E80054"/>
<path d="M7.59372 3.5C7.59372 4.05228 7.14602 4.49998 6.59373 4.49998C6.04145 4.49998 5.59375 4.05228 5.59375 3.5V1.49998C5.5937 0.947703 6.04141 0.5 6.59369 0.5C7.14597 0.5 7.59367 0.947703 7.59367 1.49998V3.5H7.59372Z" fill="#EBF5FC"/>
<path d="M16.7969 3.5C16.7969 4.05228 16.3492 4.49998 15.7969 4.49998C15.2446 4.49998 14.7969 4.05228 14.7969 3.5V1.49998C14.7969 0.947703 15.2446 0.5 15.7969 0.5C16.3491 0.5 16.7968 0.947703 16.7968 1.49998V3.5H16.7969Z" fill="#EBF5FC"/>
<path d="M15.797 0.5C15.5917 0.5 15.401 0.562063 15.2422 0.668188C15.5105 0.847531 15.6874 1.15302 15.6874 1.50003V3.5C15.6874 3.84697 15.5105 4.1525 15.2422 4.33184C15.401 4.43792 15.5917 4.50003 15.797 4.50003C16.3493 4.50003 16.797 4.05233 16.797 3.50005V1.49998C16.797 0.947703 16.3493 0.5 15.797 0.5Z" fill="#D3DCFB"/>
<path d="M6.59387 0.5C6.38856 0.5 6.19787 0.562063 6.03906 0.668188C6.30742 0.847531 6.48428 1.15302 6.48428 1.50003V3.5C6.48428 3.84697 6.30742 4.1525 6.03906 4.33184C6.19783 4.43792 6.38856 4.50003 6.59387 4.50003C7.14616 4.50003 7.59386 4.05233 7.59386 3.50005V1.49998C7.59391 0.947703 7.1462 0.5 6.59387 0.5Z" fill="#D3DCFB"/>
<path d="M20.0017 2.09998H18.8906C19.7743 2.09998 20.4906 2.81627 20.4906 3.69991V7.69999H21.6016V3.69996C21.6016 2.81632 20.8853 2.09998 20.0017 2.09998Z" fill="#E80054"/>
<path d="M0.796875 5.73779H21.5985V6.46215H0.796875V5.73779Z" fill="#E80054"/>
<path d="M17.1953 24.5C20.509 24.5 23.1953 21.8137 23.1953 18.5C23.1953 15.1863 20.509 12.5 17.1953 12.5C13.8816 12.5 11.1953 15.1863 11.1953 18.5C11.1953 21.8137 13.8816 24.5 17.1953 24.5Z" fill="#4FABF7"/>
<path d="M17.1969 22.9C19.627 22.9 21.5969 20.9301 21.5969 18.5C21.5969 16.0699 19.627 14.1 17.1969 14.1C14.7668 14.1 12.7969 16.0699 12.7969 18.5C12.7969 20.9301 14.7668 22.9 17.1969 22.9Z" fill="#EBF5FC"/>
<path d="M17.1981 18.0621C16.998 18.0621 16.8359 17.9 16.8359 17.6999V15.6999C16.8359 15.4999 16.9981 15.3378 17.1981 15.3378C17.3982 15.3378 17.5602 15.4999 17.5602 15.6999V17.6999C17.5602 17.9 17.3981 18.0621 17.1981 18.0621Z" fill="#3C58A0"/>
<path d="M19.195 18.8621H17.995C17.7949 18.8621 17.6328 18.7 17.6328 18.5C17.6328 18.3 17.795 18.1378 17.995 18.1378H19.195C19.3951 18.1378 19.5572 18.3 19.5572 18.5C19.5572 18.7 19.395 18.8621 19.195 18.8621Z" fill="#3C58A0"/>
<path d="M17.196 12.5C17.0087 12.5 16.8236 12.509 16.6407 12.5258C19.694 12.8061 22.0853 15.3736 22.0853 18.5C22.0853 21.6264 19.6939 24.1939 16.6406 24.4742C16.8235 24.491 17.0087 24.5 17.196 24.5C20.5096 24.5 23.196 21.8137 23.196 18.5C23.196 15.1863 20.5097 12.5 17.196 12.5Z" fill="#1886EA"/>
<path d="M17.1956 14.1C17.0076 14.1 16.8224 14.1118 16.6406 14.1347C18.8087 14.4076 20.4857 16.2579 20.4857 18.5C20.4857 20.7421 18.8087 22.5924 16.6406 22.8653C16.8224 22.8881 17.0076 22.9 17.1956 22.9C19.6256 22.9 21.5956 20.93 21.5956 18.5C21.5956 16.0699 19.6256 14.1 17.1956 14.1Z" fill="#D3DCFB"/>
<path d="M17.1985 19.3C17.6403 19.3 17.9985 18.9418 17.9985 18.5C17.9985 18.0581 17.6403 17.7 17.1985 17.7C16.7566 17.7 16.3984 18.0581 16.3984 18.5C16.3984 18.9418 16.7566 19.3 17.1985 19.3Z" fill="#FFDD40"/>
</g>
<defs>
<clipPath id="clip0_2151_4278">
<rect width="24" height="24" fill="white" transform="translate(0 0.5)"/>
</clipPath>
</defs>
</svg>
