<svg width="120" height="120" viewBox="0 0 120 120" fill="none" xmlns="http://www.w3.org/2000/svg">
<path d="M111.999 64.7004C111.999 67.6116 97.9342 69.2526 97.4577 72.0196C96.9812 74.7867 109.603 81.2477 108.65 83.9049C107.696 86.5621 93.9109 83.2869 92.5017 85.745C91.0925 88.2031 100.793 98.5984 98.9758 100.782C97.1582 102.965 85.3605 95.1104 83.1684 96.9505C80.9763 98.7906 86.6403 111.877 84.1759 113.312C81.7115 114.747 73.2836 103.288 70.6218 104.27C67.96 105.252 68.8246 119.485 66.0334 119.986C63.2423 120.488 59.2258 106.796 56.3461 106.796C53.4665 106.796 49.4363 120.474 46.686 119.986C43.9357 119.499 44.6982 105.238 42.0636 104.27C39.429 103.302 30.9466 114.734 28.5095 113.312C26.0723 111.891 31.6819 98.7837 29.517 96.9505C27.3522 95.1172 15.5409 102.972 13.7164 100.782C11.8919 98.5915 21.6133 88.2305 20.1905 85.745C18.7677 83.2595 5.01618 86.6101 4.03588 83.9049C3.05557 81.1996 15.7315 74.8691 15.2345 72.0196C14.7376 69.1702 0.679688 67.6116 0.679688 64.7004C0.679688 61.7891 14.7512 60.1825 15.2345 57.3811C15.7179 54.5797 3.07599 48.153 4.03588 45.4958C4.99576 42.8387 18.7745 46.1138 20.1905 43.6557C21.6065 41.1977 11.8987 30.8024 13.7164 28.5983C15.5341 26.3943 27.3318 34.2698 29.517 32.4296C31.7023 30.5895 26.0519 17.5027 28.5095 16.0677C30.9671 14.6327 39.4018 26.0922 42.0636 25.1104C44.7254 24.1285 43.8608 9.91566 46.686 9.41443C49.5112 8.91321 53.4937 22.6042 56.3461 22.6042C59.1985 22.6042 63.2559 8.93381 66.0334 9.41443C68.811 9.89506 67.9873 24.1628 70.6218 25.1653C73.2564 26.1677 81.7388 14.7013 84.1827 16.1226C86.6267 17.5439 81.0103 30.617 83.1684 32.4502C85.3264 34.2835 97.1514 26.4287 98.9758 28.6189C100.8 30.8092 91.0789 41.1702 92.5017 43.6557C93.9245 46.1413 107.676 42.7975 108.65 45.4958C109.623 48.1942 96.9608 54.5316 97.4577 57.3811C97.9547 60.2305 111.999 61.7891 111.999 64.7004Z" fill="#1D4487"/>
<path d="M111.299 63.2997C111.299 66.204 97.241 67.845 96.7576 70.6189C96.2743 73.3928 108.916 79.8401 107.956 82.4973C106.996 85.1545 93.2176 81.8862 91.8084 84.3443C90.3992 86.8024 100.1 97.1976 98.2825 99.3811C96.4649 101.564 84.6672 93.7097 82.4751 95.5498C80.283 97.3899 85.947 110.477 83.4826 111.912C81.0182 113.347 72.5903 101.88 69.9285 102.869C67.2667 103.858 68.1313 118.084 65.3061 118.586C62.4809 119.087 58.4984 105.396 55.6528 105.396C52.8072 105.396 48.7362 119.066 45.9927 118.586C43.2492 118.105 44.0049 103.837 41.3703 102.869C38.7357 101.901 30.2533 113.333 27.8162 111.912C25.379 110.49 30.9886 97.383 28.8237 95.5498C26.6589 93.7165 14.8407 101.564 13.0231 99.3811C11.2054 97.1976 20.92 86.823 19.4904 84.3443C18.0608 81.8656 4.32288 85.2026 3.34257 82.4973C2.36227 79.7921 15.0382 73.4684 14.5412 70.6189C14.0443 67.7695 0 66.204 0 63.2997C0 60.3953 14.0579 58.7474 14.5412 55.9804C15.0246 53.2133 2.38269 46.7523 3.34257 44.0951C4.30246 41.438 18.0812 44.7131 19.4972 42.2482C20.9132 39.7832 11.2054 29.4017 13.0231 27.2251C14.8407 25.0486 26.6385 32.8897 28.8237 31.0564C31.009 29.2231 25.3586 16.1226 27.8162 14.6876C30.2738 13.2526 38.7085 24.7121 41.3703 23.7303C44.0321 22.7484 43.1675 8.51496 45.9927 8C48.8179 7.48504 52.8004 21.1898 55.6528 21.1898C58.5052 21.1898 62.5626 7.52624 65.3061 8C68.0496 8.47376 67.2939 22.7484 69.9285 23.7165C72.5631 24.6846 81.0455 13.2594 83.4826 14.6876C85.9198 16.1157 80.3307 29.2163 82.4751 31.0495C84.6195 32.8828 96.4581 25.028 98.2825 27.2251C100.107 29.4223 90.3856 39.7764 91.8084 42.2619C93.2312 44.7474 106.983 41.3968 107.956 44.102C108.93 46.8073 96.2674 53.1378 96.7576 55.9873C97.2478 58.8367 111.299 60.3884 111.299 63.2997Z" fill="#FF861C"/>
<path d="M28.5829 56.736H32.7909V59.008H28.5829V56.736ZM28.8389 62H25.7509V52.752H33.3349V55.024H28.8389V62ZM34.7041 62V52.752H39.1841C40.0587 52.752 40.8161 52.896 41.4561 53.184C42.0961 53.4613 42.5867 53.856 42.9281 54.368C43.2801 54.88 43.4561 55.4987 43.4561 56.224C43.4561 56.9387 43.2801 57.552 42.9281 58.064C42.5867 58.576 42.0961 58.9707 41.4561 59.248C40.8161 59.5253 40.0587 59.664 39.1841 59.664H36.4161L37.7921 58.4V62H34.7041ZM40.3521 62L38.0321 58.64H41.3121L43.6641 62H40.3521ZM37.7921 58.736L36.6721 57.392H38.9601C39.4294 57.392 39.7814 57.2907 40.0161 57.088C40.2507 56.8747 40.3681 56.5867 40.3681 56.224C40.3681 55.872 40.2507 55.5947 40.0161 55.392C39.7814 55.1787 39.4294 55.072 38.9601 55.072H36.6721L37.7921 53.728V58.736ZM47.9256 56.24H52.1816V58.384H47.9256V56.24ZM48.1816 59.728H52.9016V62H45.1416V52.752H52.7256V55.024H48.1816V59.728ZM57.2537 56.24H61.5097V58.384H57.2537V56.24ZM57.5097 59.728H62.2297V62H54.4697V52.752H62.0537V55.024H57.5097V59.728ZM70.2461 62V55.088H67.4621V52.752H76.1181V55.088H73.3341V62H70.2461ZM81.7838 62.208C80.7705 62.208 79.8638 62 79.0638 61.584C78.2638 61.168 77.6345 60.5973 77.1758 59.872C76.7171 59.136 76.4878 58.304 76.4878 57.376C76.4878 56.4373 76.7171 55.6053 77.1758 54.88C77.6345 54.1547 78.2638 53.584 79.0638 53.168C79.8638 52.752 80.7705 52.544 81.7838 52.544C82.7971 52.544 83.7038 52.752 84.5038 53.168C85.3038 53.584 85.9331 54.1547 86.3918 54.88C86.8505 55.6053 87.0798 56.4373 87.0798 57.376C87.0798 58.304 86.8505 59.136 86.3918 59.872C85.9331 60.5973 85.3038 61.168 84.5038 61.584C83.7038 62 82.7971 62.208 81.7838 62.208ZM81.7838 59.744C82.2105 59.744 82.5838 59.6427 82.9038 59.44C83.2345 59.2373 83.4905 58.96 83.6718 58.608C83.8638 58.2453 83.9598 57.8347 83.9598 57.376C83.9598 56.9067 83.8638 56.496 83.6718 56.144C83.4905 55.792 83.2345 55.5147 82.9038 55.312C82.5838 55.1093 82.2105 55.008 81.7838 55.008C81.3678 55.008 80.9945 55.1093 80.6638 55.312C80.3331 55.504 80.0718 55.7813 79.8798 56.144C79.6878 56.5067 79.5918 56.9173 79.5918 57.376C79.5918 57.8347 79.6878 58.2453 79.8798 58.608C80.0718 58.96 80.3331 59.2373 80.6638 59.44C80.9945 59.6427 81.3678 59.744 81.7838 59.744ZM25.917 76L30.029 66.752H33.069L37.181 76H34.173L31.037 68.176H32.061L28.877 76H25.917ZM28.365 74.368L29.149 72.224H33.453L34.237 74.368H28.365ZM39.2383 76V69.088H36.4543V66.752H45.1103V69.088H42.3263V76H39.2383ZM48.1445 76V69.088H45.3605V66.752H54.0165V69.088H51.2325V76H48.1445ZM57.8865 70.24H62.1425V72.384H57.8865V70.24ZM58.1425 73.728H62.8625V76H55.1025V66.752H62.6865V69.024H58.1425V73.728ZM64.4306 76V66.752H66.9746L71.7906 72.464H70.6386V66.752H73.6626V76H71.1186L66.2706 70.288H67.4546V76H64.4306ZM75.7431 76V66.752H80.3191C81.3751 66.752 82.3031 66.9387 83.1031 67.312C83.9138 67.6853 84.5378 68.2187 84.9751 68.912C85.4231 69.5947 85.6471 70.416 85.6471 71.376C85.6471 72.336 85.4231 73.1627 84.9751 73.856C84.5378 74.5387 83.9138 75.0667 83.1031 75.44C82.3031 75.8133 81.3751 76 80.3191 76H75.7431ZM78.8311 73.648H80.2071C80.6765 73.648 81.0818 73.5627 81.4231 73.392C81.7645 73.2213 82.0311 72.9653 82.2231 72.624C82.4258 72.2827 82.5271 71.8667 82.5271 71.376C82.5271 70.8747 82.4258 70.4587 82.2231 70.128C82.0311 69.7867 81.7645 69.5307 81.4231 69.36C81.0818 69.1893 80.6765 69.104 80.2071 69.104H78.8311V73.648Z" fill="white"/>
</svg>
