<svg width="28" height="28" viewBox="0 0 28 28" fill="none" xmlns="http://www.w3.org/2000/svg">
<g clip-path="url(#clip0_2312_5380)">
<path d="M28.0007 14C28.0007 21.7317 21.7324 28 14 28H13.9738C6.25381 27.9855 0 21.7214 0 14C0 6.27865 6.25381 0.0137992 13.9738 0H14C21.7324 0 28.0007 6.26623 28.0007 14Z" fill="black"/>
<path d="M13.9738 0V28C6.25381 27.9855 0 21.7214 0 14C0 6.27865 6.25381 0.0137992 13.9738 0Z" fill="#0C0C0C"/>
<path d="M21.6217 10.1245L21.6044 12.9926C21.0455 12.9858 20.4895 12.9112 19.9485 12.7705C19.114 12.5525 18.3269 12.1822 17.6268 11.6783C17.6268 11.9715 17.631 12.4089 17.631 12.9409C17.631 13.6488 17.631 14.051 17.6268 14.4781C17.6144 17.1165 17.6799 17.6271 17.4481 18.6703C17.3999 18.9219 17.3339 19.1698 17.2508 19.412C16.8051 20.654 15.8336 21.6489 14.8435 22.1781C14.5672 22.325 14.2772 22.4445 13.9776 22.5348C12.1064 23.102 9.85786 22.6038 8.69734 21.2239L8.68975 21.2156L8.68078 21.2039C7.69483 20.0144 7.47956 18.1598 7.45886 17.6851C7.45886 17.6244 7.45472 17.565 7.45472 17.565C7.43953 16.9166 7.53281 16.2701 7.73071 15.6524C7.93079 15.0135 8.58971 13.6799 10.0697 12.8698C10.9927 12.3726 12.0462 12.171 13.0876 12.2923L13.0538 15.195C12.9951 15.1798 11.5772 14.8438 10.6465 15.8098C9.80335 16.6846 9.85786 18.0942 10.4561 18.8925C10.4878 18.9353 10.5216 18.9767 10.5568 19.0153C10.8914 19.3886 11.3157 19.5287 11.6021 19.6266C11.9818 19.7517 12.3802 19.8101 12.7798 19.7991C13.2079 19.7924 13.6243 19.6587 13.9762 19.4148C14.9491 18.7538 15.0802 17.5768 15.085 17.5098C15.073 13.7206 15.0618 9.93129 15.0512 6.14203V6.13858L16.8748 6.10615H16.9044L17.1687 6.10132C17.3635 6.80256 17.6938 7.45887 18.1408 8.03321C18.2817 8.21285 18.4338 8.38338 18.5962 8.54378C19.2099 9.14107 19.9471 9.59655 20.7558 9.87817H20.7613C21.0419 9.98069 21.3294 10.063 21.6217 10.1245Z" fill="#FD2854"/>
<path d="M20.7955 11.4223H20.79C19.8079 11.5796 18.8026 11.5033 17.8556 11.1994C17.1943 10.9844 16.5735 10.6605 16.0189 10.2411C16.3514 12.2513 16.3514 14.3025 16.0189 16.3127C15.6249 18.6751 15.3779 20.1558 14.0594 21.1031C14.0318 21.1231 14.0035 21.1431 13.9752 21.1618C12.1544 22.3947 9.61052 21.7827 8.67838 21.2025L8.66458 21.1942L8.63836 21.1776C8.33112 20.9741 8.04292 20.7432 7.77729 20.4877C7.30114 20.0258 6.92118 19.4742 6.65935 18.8646C6.39752 18.2551 6.259 17.5998 6.25179 16.9364C6.23407 16.2494 6.34813 15.5652 6.5878 14.9211C6.74304 14.5071 7.31985 13.0347 8.92677 12.1385C9.95574 11.5743 11.1447 11.373 12.3021 11.5672C12.2975 11.7972 12.2931 12.0271 12.2889 12.2571V12.262L12.262 13.7178C11.7584 13.5991 11.2378 13.5701 10.7241 13.6322C10.3101 13.6833 9.90444 13.7309 9.47322 14.002C8.92094 14.3575 8.53005 14.9154 8.38446 15.5558C8.29232 15.866 8.27343 16.1934 8.32926 16.5121C8.34582 16.6032 8.46725 17.2359 8.97782 17.6899C9.14963 17.8424 9.22276 17.8486 9.47322 18.0825C9.694 18.2895 9.7492 18.3888 9.95136 18.5606C9.95136 18.5606 10.001 18.6027 10.0825 18.662C10.0877 18.6666 10.0932 18.6707 10.099 18.6745C10.2103 18.7559 10.3272 18.8294 10.4488 18.8946C10.9546 19.1595 11.8598 19.1878 12.5235 18.8656C13.4419 18.4192 13.9428 17.3925 13.9407 16.7826C13.9297 12.9919 13.9184 9.20152 13.9069 5.41133H13.9704L16.7868 5.39478C16.7848 5.61446 16.8152 5.83324 16.8772 6.04403C16.8841 6.0668 16.891 6.08819 16.8986 6.11302C16.9062 6.13786 16.911 6.14959 16.9172 6.16684C16.9609 6.2815 17.0114 6.39347 17.0683 6.50216L17.1076 6.58151V6.58772C17.107 6.5895 17.107 6.59145 17.1076 6.59324L17.1138 6.60635L17.1201 6.61877C17.1238 6.62679 17.1279 6.63462 17.1325 6.64222C17.1366 6.65119 17.1414 6.66016 17.1463 6.66913C17.1725 6.7195 17.2084 6.78574 17.2491 6.86025C17.2746 6.90648 17.3015 6.95271 17.3291 6.99824L17.3588 7.04723C17.3733 7.07207 17.3884 7.09691 17.4036 7.12106L17.4588 7.20868C17.6734 7.54745 18.0501 8.11805 18.5842 8.54928C19.3348 9.15506 20.1973 9.32617 20.7382 9.37723C20.7417 9.54696 20.7458 9.71669 20.7493 9.88642C20.7695 10.3988 20.7849 10.9108 20.7955 11.4223Z" fill="#24F6FA"/>
<path d="M20.8051 12.2331C19.3834 12.2852 17.9875 11.8432 16.855 10.9822V17.0538C16.8412 17.2863 16.6377 19.8509 14.3208 21.2626C14.2063 21.3316 14.091 21.3958 13.9758 21.4551C11.7962 22.5673 9.66632 21.6959 9.45588 21.6055C9.24664 21.5371 9.04611 21.4445 8.85838 21.3295C8.79973 21.2929 8.74246 21.255 8.68796 21.2157L8.63897 21.1791C7.21765 20.1 7.159 17.9018 7.15003 17.5775C7.13485 16.9291 7.22812 16.2826 7.42602 15.6649C7.66061 14.9163 8.36092 13.6544 9.76499 12.8823C10.5397 12.4607 11.4104 12.2468 12.2923 12.2614V12.2662C12.2808 12.9952 12.2693 13.7245 12.2578 14.4541C12.1095 14.414 11.2001 14.185 10.3114 14.7445C9.75916 15.1 9.36827 15.6579 9.22268 16.2983C9.13556 16.6091 9.11673 16.9351 9.16748 17.2539C9.24627 17.6475 9.432 18.0118 9.70427 18.3068C9.81873 18.4386 9.9466 18.5582 10.0858 18.6635C10.091 18.668 10.0966 18.6722 10.1024 18.6759C10.2117 18.7603 10.3288 18.834 10.4522 18.896L10.4563 18.8995C10.7029 19.2718 11.0585 19.5587 11.4745 19.721C11.8906 19.8833 12.3466 19.913 12.7801 19.8061C12.9821 19.7639 13.1783 19.6977 13.3645 19.6088C13.59 19.5015 13.7967 19.3584 13.9765 19.1851C14.6747 18.5138 14.7769 17.5851 14.7817 17.5292L14.7513 6.15244L15.0549 6.14623L16.8785 6.11035H16.9047C16.9116 6.12829 16.9192 6.14623 16.9268 6.16417C16.9689 6.26559 17.0192 6.37806 17.0779 6.49949L17.1172 6.57884V6.58505C17.1166 6.58683 17.1166 6.58878 17.1172 6.59056L17.1234 6.60367L17.1296 6.61609C17.1334 6.62412 17.1375 6.63195 17.142 6.63955C17.1462 6.64852 17.151 6.65749 17.1558 6.66646C17.1876 6.72856 17.2248 6.79272 17.2587 6.85758C17.2842 6.90381 17.3111 6.95003 17.3387 6.99557L17.3684 7.04456L17.4132 7.11838L17.4684 7.20601C17.784 7.69962 18.1623 8.15024 18.5937 8.5466C19.2234 9.12309 19.956 9.57578 20.7533 9.88099H20.7588C20.7678 10.3922 20.7768 10.9049 20.785 11.4162L20.8051 12.2331Z" fill="white"/>
<path opacity="0.17" d="M21.6206 10.1245L21.6034 12.9926C21.0445 12.9858 20.4884 12.9112 19.9475 12.7705C19.1129 12.5524 18.3258 12.1822 17.6258 11.6783C17.6258 11.9715 17.6299 12.4089 17.6299 12.9409C17.6299 13.6488 17.6299 14.051 17.6258 14.4781C17.6133 17.1165 17.6789 17.6271 17.4471 18.6703C17.3988 18.9219 17.3329 19.1697 17.2497 19.412C16.804 20.654 15.8326 21.6489 14.8425 22.1781C14.5662 22.325 14.2761 22.4444 13.9766 22.5348V5.41133L16.793 5.39478C16.791 5.61446 16.8214 5.83324 16.8834 6.04403C16.8903 6.0668 16.8972 6.08819 16.9048 6.11302L17.169 6.10819C17.3639 6.80944 17.6941 7.46574 18.1412 8.04009C18.282 8.21973 18.4341 8.39026 18.5965 8.55066C19.3472 9.15644 20.2097 9.32755 20.7506 9.37861C20.7541 9.54834 20.7582 9.71807 20.7616 9.8878C21.042 9.98699 21.329 10.0661 21.6206 10.1245Z" fill="black"/>
</g>
<defs>
<clipPath id="clip0_2312_5380">
<rect width="28" height="28" fill="white"/>
</clipPath>
</defs>
</svg>
