<svg width="28" height="28" viewBox="0 0 28 28" fill="none" xmlns="http://www.w3.org/2000/svg">
<g clip-path="url(#clip0_2151_4445)">
<path d="M14 28C21.732 28 28 21.732 28 14C28 6.26801 21.732 0 14 0C6.26801 0 0 6.26801 0 14C0 21.732 6.26801 28 14 28Z" fill="#00A6DE"/>
<path d="M20.9719 9.76316C20.641 10.2602 20.2367 10.7043 19.7727 11.0803C19.7142 11.129 19.6673 11.1902 19.6355 11.2593C19.6036 11.3285 19.5875 11.4039 19.5885 11.48V11.5261C19.5831 12.5244 19.3997 13.5137 19.0469 14.4476C18.6834 15.4278 18.1433 16.3332 17.4535 17.1187C16.5264 18.174 15.3339 18.9621 13.9995 19.4011C13.1227 19.6856 12.2061 19.828 11.2843 19.8229C9.82189 19.8227 8.38558 19.4357 7.12111 18.7011C7.0758 18.6753 7.04013 18.6354 7.01952 18.5876C6.99891 18.5397 6.99448 18.4864 7.0069 18.4358C7.01965 18.386 7.04871 18.3419 7.08944 18.3105C7.13017 18.2791 7.18022 18.2623 7.23164 18.2626H7.58164C8.69298 18.2654 9.77973 17.9356 10.7022 17.3158C10.1524 17.2268 9.63795 16.9877 9.21541 16.625C8.79287 16.2623 8.47866 15.7899 8.30743 15.26C8.29866 15.2335 8.29707 15.2051 8.30282 15.1777C8.30857 15.1504 8.32145 15.125 8.34015 15.1043C8.35886 15.0835 8.38273 15.0681 8.40933 15.0595C8.43594 15.0509 8.46433 15.0496 8.49164 15.0555C8.65928 15.0871 8.82948 15.1031 9.00006 15.1034H9.06453C8.53323 14.8593 8.084 14.4666 7.77115 13.9726C7.4583 13.4787 7.29523 12.9047 7.30164 12.32C7.30183 12.2926 7.3091 12.2658 7.32275 12.2421C7.33639 12.2184 7.35594 12.1986 7.3795 12.1847C7.40306 12.1708 7.42982 12.1632 7.45717 12.1627C7.48452 12.1622 7.51154 12.1688 7.53559 12.1818C7.75169 12.3025 7.98358 12.3924 8.22453 12.4489C7.74826 11.9777 7.44191 11.3617 7.35356 10.6976C7.26521 10.0335 7.39986 9.35881 7.73638 8.77947C7.74911 8.75722 7.76705 8.73839 7.78866 8.7246C7.81027 8.71081 7.8349 8.70247 7.86045 8.7003C7.88599 8.69812 7.91168 8.70218 7.93531 8.71212C7.95894 8.72206 7.97981 8.73759 7.99611 8.75737C8.66145 9.58116 9.48545 10.2629 10.4192 10.7623C11.353 11.2616 12.3776 11.5683 13.4322 11.6642H13.4469C13.4624 11.6638 13.4776 11.6602 13.4917 11.6536C13.5058 11.6471 13.5183 11.6378 13.5287 11.6262C13.539 11.6147 13.5469 11.6012 13.5518 11.5865C13.5568 11.5718 13.5587 11.5562 13.5574 11.5408C13.5163 11.1711 13.54 10.7971 13.6274 10.4355C13.7463 9.94408 13.9903 9.49173 14.3356 9.12247C14.681 8.7532 15.1161 8.47956 15.5985 8.32816C15.908 8.23147 16.2303 8.1818 16.5545 8.18079C17.2898 8.17994 18 8.4479 18.5514 8.93421C18.6228 8.99812 18.7153 9.03352 18.8111 9.03368C18.8422 9.03302 18.8731 9.02869 18.9032 9.02079C19.4213 8.88987 19.9177 8.68448 20.3769 8.41105C20.4044 8.3941 20.4364 8.38606 20.4687 8.38803C20.5009 8.39 20.5317 8.40188 20.5569 8.42205C20.5821 8.44222 20.6005 8.46969 20.6095 8.50069C20.6185 8.5317 20.6177 8.56473 20.6072 8.59526C20.4539 9.07749 20.1807 9.51293 19.8132 9.86079C20.1443 9.78186 20.4674 9.67272 20.7785 9.53474C20.8092 9.52288 20.8428 9.52089 20.8747 9.52903C20.9066 9.53716 20.9352 9.55503 20.9564 9.58015C20.9777 9.60527 20.9906 9.63639 20.9934 9.66918C20.9962 9.70198 20.9887 9.73483 20.9719 9.76316Z" fill="white"/>
</g>
<defs>
<clipPath id="clip0_2151_4445">
<rect width="28" height="28" fill="white"/>
</clipPath>
</defs>
</svg>
