<svg width="28" height="28" viewBox="0 0 28 28" fill="none" xmlns="http://www.w3.org/2000/svg">
<path d="M18.7146 8.75C17.7914 4.4625 15.8227 1.75 14.0018 1.75C12.1809 1.75 10.2122 4.4625 9.28906 8.75H18.7146Z" fill="url(#paint0_linear_2151_4423)"/>
<path d="M8.75 14C8.74978 15.1706 8.82783 16.3398 8.98363 17.5H19.0164C19.1722 16.3398 19.2502 15.1706 19.25 14C19.2502 12.8294 19.1722 11.6602 19.0164 10.5H8.98363C8.82783 11.6602 8.74978 12.8294 8.75 14Z" fill="url(#paint1_linear_2151_4423)"/>
<path d="M9.28906 19.25C10.2122 23.5375 12.1809 26.25 14.0018 26.25C15.8227 26.25 17.7914 23.5375 18.7146 19.25H9.28906Z" fill="url(#paint2_linear_2151_4423)"/>
<path d="M20.5054 8.75001H26.0179C25.1896 6.86505 23.9311 5.20043 22.3433 3.88967C20.7556 2.57892 18.8827 1.6585 16.875 1.20226C18.5349 2.66263 19.8369 5.36288 20.5054 8.75001Z" fill="url(#paint3_linear_2151_4423)"/>
<path d="M26.6446 10.5H20.7821C20.9265 11.6611 20.9987 12.83 20.9982 14C20.9984 15.17 20.9259 16.3389 20.7812 17.5H26.6437C27.2819 15.2103 27.2827 12.7897 26.6446 10.5Z" fill="url(#paint4_linear_2151_4423)"/>
<path d="M16.875 26.7977C18.883 26.3417 20.7562 25.4214 22.3443 24.1107C23.9324 22.7999 25.1912 21.1352 26.0196 19.25H20.5071C19.8369 22.6371 18.5349 25.3374 16.875 26.7977Z" fill="url(#paint5_linear_2151_4423)"/>
<path d="M7.49687 19.25H1.98438C2.81282 21.1352 4.07158 22.7999 5.65967 24.1107C7.24776 25.4214 9.12096 26.3417 11.129 26.7977C9.46737 25.3374 8.16537 22.6371 7.49687 19.25Z" fill="url(#paint6_linear_2151_4423)"/>
<path d="M11.129 1.20226C9.12096 1.65826 7.24776 2.57856 5.65967 3.88933C4.07158 5.2001 2.81282 6.86484 1.98438 8.75001H7.49687C8.16712 5.36288 9.46912 2.66263 11.129 1.20226Z" fill="url(#paint7_linear_2151_4423)"/>
<path d="M6.99908 14C6.99897 12.83 7.07144 11.6611 7.21608 10.5H1.35358C0.715472 12.7897 0.715472 15.2103 1.35358 17.5H7.21608C7.07144 16.3389 6.99897 15.17 6.99908 14Z" fill="url(#paint8_linear_2151_4423)"/>
<defs>
<linearGradient id="paint0_linear_2151_4423" x1="-1.35006" y1="21.8654" x2="18.5238" y2="2.71338" gradientUnits="userSpaceOnUse">
<stop stop-color="#00A1E2"/>
<stop offset="1" stop-color="#00E0A5"/>
</linearGradient>
<linearGradient id="paint1_linear_2151_4423" x1="2.10963" y1="25.4572" x2="21.9844" y2="6.30612" gradientUnits="userSpaceOnUse">
<stop stop-color="#00A1E2"/>
<stop offset="1" stop-color="#00E0A5"/>
</linearGradient>
<linearGradient id="paint2_linear_2151_4423" x1="5.57381" y1="29.05" x2="25.4477" y2="9.89888" gradientUnits="userSpaceOnUse">
<stop stop-color="#00A1E2"/>
<stop offset="1" stop-color="#00E0A5"/>
</linearGradient>
<linearGradient id="paint3_linear_2151_4423" x1="1.18713" y1="24.4991" x2="21.061" y2="5.34801" gradientUnits="userSpaceOnUse">
<stop stop-color="#00A1E2"/>
<stop offset="1" stop-color="#00E0A5"/>
</linearGradient>
<linearGradient id="paint4_linear_2151_4423" x1="6.78563" y1="30.3117" x2="26.6604" y2="11.1598" gradientUnits="userSpaceOnUse">
<stop stop-color="#00A1E2"/>
<stop offset="1" stop-color="#00E0A5"/>
</linearGradient>
<linearGradient id="paint5_linear_2151_4423" x1="9.53637" y1="33.1634" x2="29.4102" y2="14.0123" gradientUnits="userSpaceOnUse">
<stop stop-color="#00A1E2"/>
<stop offset="1" stop-color="#00E0A5"/>
</linearGradient>
<linearGradient id="paint6_linear_2151_4423" x1="3.03525" y1="26.4162" x2="22.9091" y2="7.26425" gradientUnits="userSpaceOnUse">
<stop stop-color="#00A1E2"/>
<stop offset="1" stop-color="#00E0A5"/>
</linearGradient>
<linearGradient id="paint7_linear_2151_4423" x1="-5.31225" y1="17.752" x2="14.5625" y2="-1.39999" gradientUnits="userSpaceOnUse">
<stop stop-color="#00A1E2"/>
<stop offset="1" stop-color="#00E0A5"/>
</linearGradient>
<linearGradient id="paint8_linear_2151_4423" x1="-2.56817" y1="20.6036" x2="17.3057" y2="1.4525" gradientUnits="userSpaceOnUse">
<stop stop-color="#00A1E2"/>
<stop offset="1" stop-color="#00E0A5"/>
</linearGradient>
</defs>
</svg>
