<svg width="28" height="28" viewBox="0 0 28 28" fill="none" xmlns="http://www.w3.org/2000/svg">
<g clip-path="url(#clip0_2151_4440)">
<path d="M14 28C21.732 28 28 21.732 28 14C28 6.26801 21.732 0 14 0C6.26801 0 0 6.26801 0 14C0 21.732 6.26801 28 14 28Z" fill="#F20000"/>
<path d="M20.6712 10.6326C20.3912 9.76316 19.4646 9.24921 18.6043 9.12948C15.5379 8.80342 12.4455 8.80342 9.37908 9.12948C8.52619 9.24921 7.59961 9.77053 7.31961 10.6326C6.88305 12.8569 6.88305 15.1449 7.31961 17.3692C7.60698 18.2368 8.53356 18.7526 9.39382 18.8724C12.4604 19.1966 15.5525 19.1966 18.6191 18.8724C19.472 18.7526 20.3986 18.2295 20.6786 17.3692C21.1127 15.1444 21.1102 12.8565 20.6712 10.6326ZM12.3246 16.6821V11.3179L16.6922 14C15.2204 14.9045 13.7909 15.785 12.3246 16.6821Z" fill="white"/>
</g>
<defs>
<clipPath id="clip0_2151_4440">
<rect width="28" height="28" fill="white"/>
</clipPath>
</defs>
</svg>
