<svg width="1440" height="290" viewBox="0 0 1440 290" fill="none" xmlns="http://www.w3.org/2000/svg">
<mask id="mask0_1503_3054" style="mask-type:alpha" maskUnits="userSpaceOnUse" x="0" y="0" width="1440" height="290">
<rect width="1440" height="290" fill="#F7FDF3"/>
</mask>
<g mask="url(#mask0_1503_3054)">
<path d="M50.1912 303.034C-3.12291 318.025 -52.5989 327.245 -89.4869 330.039C-107.935 331.435 -123.208 331.223 -134.231 329.332C-139.743 328.387 -144.163 327.026 -147.38 325.257C-150.595 323.489 -152.56 321.341 -153.265 318.832C-153.971 316.324 -153.413 313.466 -151.591 310.281C-149.767 307.096 -146.704 303.631 -142.492 299.951C-134.07 292.593 -121.146 284.452 -104.673 276.029C-71.7354 259.188 -24.7045 241.273 28.6096 226.281C81.9236 211.29 131.4 202.07 168.288 199.277C186.736 197.88 202.009 198.093 213.031 199.983C218.544 200.929 222.964 202.289 226.18 204.058C229.395 205.826 231.361 207.975 232.066 210.483C232.771 212.992 232.214 215.85 230.391 219.034C228.568 222.22 225.505 225.685 221.293 229.364C212.871 236.722 199.947 244.864 183.474 253.286C150.536 270.127 103.505 288.043 50.1912 303.034Z" stroke="#020F40"/>
<path d="M42.822 345.585C-10.492 360.576 -59.968 369.797 -96.856 372.59C-115.304 373.987 -130.577 373.774 -141.6 371.883C-147.112 370.938 -151.532 369.577 -154.749 367.809C-157.964 366.04 -159.929 363.892 -160.634 361.384C-161.34 358.875 -160.782 356.017 -158.96 352.833C-157.137 349.647 -154.073 346.182 -149.861 342.502C-141.439 335.144 -128.515 327.003 -112.043 318.581C-79.1046 301.74 -32.0737 283.824 21.2404 268.833C74.5545 253.842 124.03 244.621 160.918 241.828C179.367 240.431 194.64 240.644 205.662 242.535C211.175 243.48 215.595 244.841 218.811 246.609C222.026 248.378 223.991 250.526 224.697 253.035C225.402 255.543 224.845 258.401 223.022 261.585C221.199 264.771 218.136 268.236 213.924 271.916C205.502 279.274 192.578 287.415 176.105 295.837C143.167 312.678 96.1361 330.594 42.822 345.585Z" stroke="#020F40"/>
<path d="M217.657 225.311L213.62 230.275L211.079 225.263L211.302 231.059L206.154 229.824L210.127 233.648L198.376 239.886L211.575 235.959L210.398 241.302L213.793 236.966L216.986 241.722L215.747 236.199L221.832 236.941L217.366 233.812L229.048 227.726L216.421 231.178L217.657 225.311Z" fill="#020F40"/>
<path d="M1534.94 148.299C1597.79 165.973 1656.13 176.844 1699.62 180.138C1721.37 181.785 1739.39 181.534 1752.39 179.304C1758.9 178.188 1764.12 176.582 1767.92 174.49C1771.72 172.399 1774.06 169.85 1774.9 166.861C1775.74 163.873 1775.08 160.479 1772.92 156.712C1770.76 152.944 1767.14 148.852 1762.18 144.51C1752.24 135.829 1737 126.227 1717.57 116.297C1678.73 96.4392 1623.28 75.316 1560.43 57.6417C1497.57 39.9674 1439.24 29.0961 1395.74 25.8027C1373.99 24.1557 1355.98 24.406 1342.97 26.6367C1336.47 27.7522 1331.25 29.3583 1327.44 31.4502C1323.64 33.5414 1321.3 36.0904 1320.46 39.0789C1319.62 42.0674 1320.29 45.4617 1322.44 49.2283C1324.6 52.996 1328.22 57.0882 1333.19 61.4298C1343.12 70.1111 1358.37 79.7131 1377.79 89.6437C1416.63 109.501 1472.08 130.624 1534.94 148.299Z" stroke="#020F40"/>
<path d="M1543.62 198.463C1606.48 216.137 1664.81 227.008 1708.31 230.302C1730.06 231.949 1748.07 231.698 1761.08 229.468C1767.58 228.352 1772.8 226.746 1776.61 224.654C1780.41 222.563 1782.75 220.014 1783.59 217.025C1784.43 214.037 1783.76 210.643 1781.61 206.876C1779.45 203.108 1775.83 199.016 1770.86 194.675C1760.92 185.993 1745.68 176.391 1726.26 166.461C1687.42 146.603 1631.97 125.48 1569.11 107.806C1506.26 90.1315 1447.92 79.2602 1404.43 75.9667C1382.68 74.3197 1364.66 74.5701 1351.66 76.8007C1345.15 77.9163 1339.93 79.5224 1336.13 81.6143C1332.32 83.7055 1329.99 86.2545 1329.15 89.243C1328.3 92.2315 1328.97 95.6258 1331.13 99.3923C1333.28 103.16 1336.9 107.252 1341.87 111.594C1351.81 120.275 1367.05 129.877 1386.48 139.808C1425.31 159.665 1480.76 180.788 1543.62 198.463Z" stroke="#020F40"/>
<path d="M1358.43 116.313L1363.19 122.165L1366.18 116.257L1365.92 123.09L1371.99 121.634L1367.31 126.142L1381.16 133.496L1365.6 128.866L1366.99 135.166L1362.98 130.053L1359.22 135.66L1360.68 129.15L1353.51 130.024L1358.77 126.335L1345 119.161L1359.89 123.231L1358.43 116.313Z" fill="#020F40"/>
</g>
</svg>
