<svg width="317" height="59" viewBox="0 0 317 59" fill="none" xmlns="http://www.w3.org/2000/svg">
<path d="M25.5781 6.90332C26.4167 7.5455 26.5425 8.86999 26.7941 9.95366C27.0457 11.0775 27.2973 12.2816 27.5069 13.3652C27.2134 13.6462 26.7522 13.1645 26.5006 13.4455C26.6264 18.2618 26.5006 23.7203 26.6683 28.8577C28.052 27.7339 29.4358 26.3693 30.7776 25.085C32.1194 23.8006 33.2934 22.2754 34.6772 21.3122C34.803 22.1149 33.6289 23.5196 33.0838 24.4026C32.7903 24.6836 32.7064 24.1618 32.4967 24.4026C30.7356 26.0482 28.9745 27.6938 27.3811 29.5401C33.9643 29.7809 41.512 29.2992 47.3823 29.5802C46.9211 30.5033 45.4954 30.4632 44.4471 30.6639C43.315 30.9047 42.2667 31.2659 41.2604 31.3462C41.0507 31.1054 41.2604 30.7441 41.3862 30.5836C36.2286 30.5033 31.9516 30.6237 27.465 30.5836C29.3519 33.3128 32.8322 35.6006 35.0546 38.5305C33.8385 38.4904 32.9161 37.4067 31.9097 36.885C31.7001 36.6843 31.9516 36.604 31.9097 36.2829C30.1905 34.5972 28.5552 32.8312 26.6683 31.2659C26.6264 37.6877 26.6264 44.3101 26.7102 50.6516C26.7102 51.4945 27.0876 52.5782 26.4167 53.2605C25.8716 53.0598 25.7878 52.2972 25.662 51.7754C25.2426 50.2101 24.7395 48.1632 24.6137 46.4775C25.0749 46.3972 25.1588 46.638 25.4942 46.6782C25.4942 41.5809 25.4104 36.5237 25.4104 31.3863C23.9008 32.2693 22.6848 33.8346 21.3011 35.1591C20.6302 35.8414 19.9174 36.4836 19.2465 37.1659C18.6175 37.8081 17.9466 38.6911 17.0241 38.972C17.3596 37.6877 18.324 37.0455 18.7852 35.8816C19.0368 35.6407 19.0788 36.002 19.3723 36.002C21.1334 34.1958 23.0622 32.5503 24.6975 30.5836C18.1982 30.3026 10.5667 30.704 4.78021 30.5435C4.57056 30.5435 4.65442 30.3829 4.48669 30.3428C4.48669 30.2224 4.52863 30.1822 4.57056 30.1421C6.28974 29.3394 8.59595 29.0986 10.6925 28.6571C10.986 29.0183 10.5248 29.1788 10.5667 29.5401C14.9276 29.4999 20.0012 29.5401 24.6137 29.4196C22.3494 26.4897 19.0788 24.3625 16.8145 21.272C17.9466 21.3523 18.8691 22.4761 19.9593 22.9176C20.127 23.1183 20.0012 23.2788 19.9593 23.5196C21.7204 25.3659 23.5235 27.172 25.4942 28.8176C25.4942 23.5196 25.4104 17.2183 25.2846 11.5591C25.2007 9.91352 25.0749 8.26795 25.5781 6.90332Z" fill="#2F3542"/>
<path d="M10.5248 14.0876C10.9441 13.2849 11.2376 12.442 11.7827 11.8801C12.831 13.2046 13.46 14.8903 14.2567 16.4155C13.46 17.9808 13.0407 19.9475 11.8247 21.1114C11.1957 19.6264 9.93776 18.0209 9.47652 16.576C9.30879 16.1345 10.2313 14.6896 10.5248 14.0876Z" fill="#2F3542"/>
<path d="M66.5029 34.0354H66.5448V23.8007C66.5448 22.0347 66.3352 21.834 64.4902 21.834V20.7503H70.067V21.834C68.3479 21.834 68.0963 22.0748 68.0963 23.8007V38.5707H66.0416L54.846 23.6401H54.8041V35.2395C54.8041 37.0054 55.0137 37.2061 56.8168 37.2061V38.2898H51.2819V37.2061C53.0849 37.2061 53.2946 36.9653 53.2946 35.2395V23.7605C53.2946 21.9946 53.0849 21.7939 51.2819 21.7939V20.7102H56.7748L66.5029 34.0354Z" fill="#2F3542"/>
<path d="M77.2372 38.5708C75.6019 38.5708 74.2601 38.2095 73.2538 37.4871C72.0378 36.6041 71.4088 35.1191 71.4088 32.9919C71.4088 31.1456 71.9959 29.7007 73.0861 28.7776C74.0924 27.9748 75.3923 27.5735 77.2372 27.5735C79.0822 27.5735 80.5079 28.015 81.5142 28.8578C82.5625 29.781 83.0657 31.1857 83.0657 32.9919C83.0657 35.0789 82.4787 36.4436 81.4723 37.3265C80.5079 38.1694 79.0403 38.5708 77.2372 38.5708ZM77.2372 28.4966C76.6083 28.4966 76.1051 28.7374 75.7277 29.2592C75.2246 29.9817 74.973 31.1857 74.973 33.0721C74.973 34.9585 75.2665 36.1626 75.7697 36.8851C76.1051 37.3667 76.6502 37.6476 77.2792 37.6476C77.9082 37.6476 78.4533 37.3667 78.7887 36.8851C79.2919 36.2027 79.5854 34.9585 79.5854 33.0721C79.5854 31.1857 79.2919 29.9817 78.8306 29.2592C78.4533 28.7374 77.9081 28.4966 77.2372 28.4966Z" fill="#2F3542"/>
<path d="M88.7683 29.219C89.565 28.0952 90.194 27.6135 91.2003 27.6135C91.6196 27.6135 92.0809 27.7741 92.4163 28.0952C92.7937 28.4162 93.0034 28.8577 93.0034 29.4196C93.0034 30.1421 92.626 30.6237 91.8712 30.6237C91.3681 30.6237 90.9487 30.423 90.7391 29.821C90.5294 29.1387 90.4036 28.9781 90.152 28.9781C89.8166 28.9781 89.4811 29.4598 88.7683 30.5435V35.8414C88.7683 37.2863 88.936 37.5271 90.1101 37.5271V38.3298H84.3236V37.5271C85.4138 37.5271 85.5396 37.4067 85.5396 35.8414V30.9047C85.5396 29.4999 85.4138 29.3795 84.3236 29.3795V28.6169C85.3719 28.4965 86.9233 28.1353 88.2232 27.6135L88.6006 27.7741L88.7683 29.219Z" fill="#2F3542"/>
<path d="M94.3452 28.0551C96.1483 27.8945 97.2804 26.851 98.119 24.5632H99.0415V27.8544H101.683V28.8177H99.0415V35.7211C99.0415 36.9653 99.4189 37.4469 100.258 37.4469C100.761 37.4469 101.222 37.2864 101.641 36.9653L102.228 37.7279C101.515 38.2496 100.593 38.5707 99.1254 38.5707C97.2804 38.5707 95.7289 37.9285 95.7289 35.6006V28.8177H94.3452V28.0551Z" fill="#2F3542"/>
<path d="M104.451 25.5666C104.451 24.1619 104.283 24.0013 103.025 24.0013V23.2388C104.283 23.0782 105.876 22.7571 107.386 22.2354L107.763 22.3959V29.2592H107.805C108.728 28.2959 110.028 27.6136 111.537 27.6136C112.543 27.6136 113.424 27.8143 113.969 28.2959C114.724 28.9381 114.975 29.7809 114.975 31.1857V35.8415C114.975 37.2061 115.101 37.4871 116.149 37.4871V38.2898H110.531V37.4871C111.537 37.4871 111.663 37.3265 111.663 35.8013V31.3061C111.663 30.3027 111.621 29.6605 111.285 29.219C111.076 28.9381 110.74 28.8177 110.279 28.8177C109.441 28.8177 108.602 29.5802 107.847 30.5435V35.7612C107.847 37.2864 107.973 37.4469 108.895 37.4469V38.2496H103.109V37.4469C104.409 37.4469 104.535 37.2462 104.535 35.7612V25.5666H104.451Z" fill="#2F3542"/>
<path d="M129.735 38.6107H127.722L125.5 31.3059H125.458L123.152 38.6107H121.055L117.994 30.142C117.491 28.7774 117.282 28.6971 116.653 28.6971V27.8542H121.726V28.6971C120.846 28.6971 120.72 28.8978 121.097 29.9815L122.858 35.3998H122.942L124.745 29.4196L124.578 29.0583C124.452 28.7774 124.284 28.7372 123.655 28.7372V27.8944H128.561V28.7372C127.722 28.7372 127.555 28.9379 127.848 29.8611L129.525 35.44H129.609L131.37 29.6202C131.58 28.9781 131.454 28.7372 130.574 28.7372V27.8944H133.719V28.7372C133.173 28.7372 132.964 28.9379 132.67 29.8209L129.735 38.6107Z" fill="#2F3542"/>
<path d="M138.079 33.0318C138.079 34.4767 138.289 35.6005 138.792 36.4434C139.254 37.1658 140.008 37.5672 140.679 37.5672C141.308 37.5672 141.937 37.3665 142.44 36.9651C142.86 36.644 143.195 36.2025 143.447 35.6406L144.495 36.0019C144.118 36.6842 143.656 37.2862 142.985 37.7678C142.273 38.2495 141.35 38.6107 140.05 38.6107C138.415 38.6107 137.031 38.2495 135.941 37.1658C135.06 36.2427 134.557 34.8379 134.557 32.8311C134.557 31.1053 135.228 29.7005 136.276 28.7774C137.199 28.0549 138.373 27.6536 139.799 27.6536C141.392 27.6536 142.482 28.0951 143.321 29.0182C144.118 29.9815 144.621 31.4665 144.621 33.0719H138.079V33.0318ZM141.182 32.1087C141.182 30.9849 141.057 29.861 140.721 29.1787C140.47 28.7774 140.176 28.4964 139.715 28.4964C139.337 28.4964 138.96 28.7372 138.667 29.2189C138.331 29.7808 138.079 30.7039 138.079 32.1087H141.182Z" fill="#2F3542"/>
<path d="M152.965 30.6638C152.588 29.0583 152.043 28.4964 150.827 28.4964C150.365 28.4964 149.946 28.6168 149.652 28.8175C149.359 29.0182 149.233 29.2991 149.233 29.6604C149.233 30.1019 149.569 30.5434 150.072 30.9447C150.617 31.3461 151.33 31.7474 151.959 32.1889C152.672 32.6304 153.342 33.0719 153.762 33.6338C154.181 34.1155 154.516 34.7175 154.516 35.4801C154.516 36.3631 154.139 37.0855 153.426 37.6474C152.63 38.2495 151.497 38.6107 149.862 38.6107C148.269 38.6107 147.137 38.3699 146.298 38.0889C146.172 37.1658 146.046 36.4032 145.795 35.3597L146.801 35.159C147.388 37.0454 148.143 37.6876 149.401 37.6876C149.904 37.6876 150.323 37.527 150.617 37.2461C150.91 36.9651 151.078 36.6039 151.078 36.1223C151.078 35.761 150.952 35.44 150.701 35.1189C150.407 34.7175 149.904 34.4366 148.898 33.7944C148.017 33.1522 147.304 32.7107 146.801 32.1889C146.34 31.6672 146.004 31.0651 146.004 30.3427C146.004 29.6202 146.382 28.8978 147.22 28.376C147.933 27.9345 149.023 27.6536 150.449 27.6536C151.959 27.6536 152.923 27.8542 153.552 28.0549C153.594 28.6971 153.72 29.4195 153.971 30.5434L152.965 30.6638Z" fill="#2F3542"/>
<path d="M155.607 28.0551C157.41 27.8945 158.542 26.851 159.381 24.5632H160.303V27.8544H162.945V28.8177H160.303V35.7211C160.303 36.9653 160.68 37.4469 161.519 37.4469C162.022 37.4469 162.483 37.2864 162.903 36.9653L163.49 37.7279C162.777 38.2496 161.854 38.5707 160.387 38.5707C158.542 38.5707 156.99 37.9285 156.99 35.6006V28.8177H155.607V28.0551V28.0551Z" fill="#2F3542"/>
<path d="M181.143 32.5502H179.759C179.759 30.2625 179.507 30.0618 178.417 30.0618H175.272V35.2795C175.272 37.0455 175.398 37.2462 177.746 37.2462V38.3298H169.612V37.2462C171.541 37.2462 171.708 37.0053 171.708 35.2394V23.8006C171.708 22.0747 171.499 21.8339 169.612 21.8339V20.7502H183.155L184.036 24.9244H182.61C181.939 22.3557 181.646 22.0747 180.304 22.0747H176.195C175.398 22.0747 175.314 22.2353 175.314 23.2788V28.7775H178.417C179.466 28.7775 179.759 28.4162 179.759 26.3693H181.143V32.5502Z" fill="#2F3542"/>
<path d="M187.894 33.0318C187.894 34.4767 188.103 35.6005 188.607 36.4434C189.068 37.1658 189.823 37.5672 190.494 37.5672C191.123 37.5672 191.751 37.3665 192.255 36.9651C192.674 36.644 193.009 36.2025 193.261 35.6406L194.309 36.0019C193.932 36.6842 193.471 37.2862 192.8 37.7678C192.087 38.2495 191.164 38.6107 189.865 38.6107C188.229 38.6107 186.846 38.2495 185.755 37.1658C184.875 36.2427 184.372 34.8379 184.372 32.8311C184.372 31.1053 185.042 29.7005 186.091 28.7774C186.971 28.0549 188.187 27.6536 189.613 27.6536C191.206 27.6536 192.297 28.0951 193.135 29.0182C193.974 29.9815 194.435 31.4665 194.435 33.0719H187.894V33.0318ZM190.997 32.1087C190.997 30.9849 190.871 29.861 190.535 29.1787C190.284 28.7774 189.99 28.4964 189.529 28.4964C189.152 28.4964 188.774 28.7372 188.481 29.2189C188.145 29.7808 187.894 30.7039 187.894 32.1087H190.997Z" fill="#2F3542"/>
<path d="M207.727 35.8414C207.727 37.1659 207.853 37.487 208.901 37.487V38.2897H203.324V37.487C204.331 37.487 204.415 37.3264 204.415 35.8013V30.985C204.415 30.2224 204.331 29.5802 203.953 29.1788C203.702 28.938 203.408 28.8176 202.905 28.8176C202.15 28.8176 201.27 29.4999 200.473 30.5836V35.8013C200.473 37.3264 200.515 37.487 201.48 37.487V38.2897H195.693V37.487C196.993 37.487 197.119 37.2863 197.119 35.8013V31.0251C197.119 29.5802 196.951 29.3795 195.693 29.3795V28.6169C196.909 28.4965 198.502 28.1754 199.886 27.6135L200.305 27.7741L200.389 29.3394H200.431C201.396 28.2958 202.612 27.6135 204.163 27.6135C205.295 27.6135 206.176 27.8543 206.763 28.336C207.392 28.8577 207.727 29.7006 207.727 30.9448V35.8414V35.8414Z" fill="#2F3542"/>
<path d="M219.887 36.2025C219.594 36.6842 219.091 37.3264 218.336 37.8481C217.665 38.2896 216.742 38.6107 215.61 38.6107C213.891 38.6107 212.675 38.1692 211.753 37.4066C210.662 36.4032 210.117 34.8379 210.117 33.0719C210.117 31.3862 210.62 30.142 211.501 29.259C212.549 28.1352 214.059 27.6536 215.862 27.6536C217.162 27.6536 218.084 27.9345 218.797 28.4563C219.342 28.8175 219.72 29.3393 219.72 29.9012C219.72 30.5434 219.342 30.9849 218.629 30.9849C218.294 30.9849 218 30.9046 217.791 30.744C217.539 30.5032 217.329 30.2223 217.204 29.7808C216.952 29.0182 216.575 28.5767 215.904 28.5767C215.317 28.5767 214.73 28.8978 214.31 29.6604C213.933 30.3025 213.681 31.3461 213.681 32.9917C213.681 34.4366 213.933 35.6406 214.394 36.4032C214.856 37.1658 215.526 37.527 216.281 37.527C216.826 37.527 217.329 37.3665 217.833 37.0454C218.21 36.7644 218.587 36.3631 218.923 35.8413L219.887 36.2025Z" fill="#2F3542"/>
<path d="M224.584 33.0318C224.584 34.4767 224.793 35.6005 225.296 36.4434C225.758 37.1658 226.512 37.5672 227.183 37.5672C227.812 37.5672 228.441 37.3665 228.944 36.9651C229.364 36.644 229.699 36.2025 229.909 35.6406L230.957 36.0019C230.58 36.6842 230.118 37.2862 229.448 37.7678C228.735 38.2495 227.812 38.6107 226.512 38.6107C224.877 38.6107 223.493 38.2495 222.403 37.1658C221.523 36.2427 221.019 34.8379 221.019 32.8311C221.019 31.1053 221.69 29.7005 222.739 28.7774C223.661 28.0549 224.835 27.6536 226.261 27.6536C227.854 27.6536 228.944 28.0951 229.783 29.0182C230.622 29.9815 231.083 31.4665 231.083 33.0719H224.584V33.0318ZM227.728 32.1087C227.728 30.9849 227.603 29.861 227.267 29.1787C227.016 28.7774 226.722 28.4964 226.261 28.4964C225.883 28.4964 225.506 28.7372 225.213 29.2189C224.877 29.7808 224.626 30.7039 224.626 32.1087H227.728Z" fill="#2F3542"/>
<path d="M258.758 37.3264C258.171 37.9284 257.08 38.6509 255.403 38.6509C254.187 38.6509 252.636 38.4101 250.875 37.1659C249.575 38.089 247.814 38.6509 245.801 38.6509C243.788 38.6509 242.237 38.2495 241.105 37.5672C239.763 36.7645 239.05 35.5203 239.05 34.1556C239.05 32.9917 239.427 32.0284 240.308 31.1856C240.979 30.5434 242.027 29.9414 243.453 29.3393C242.404 27.8944 241.608 26.5699 241.608 25.2856C241.608 24.0414 242.153 23.1182 243.075 22.4761C244.04 21.8339 245.34 21.4727 246.807 21.4727C248.401 21.4727 249.575 21.7937 250.413 22.3556C251.294 22.9176 251.839 23.7604 251.839 24.6434C251.839 25.3659 251.629 26.0883 251.126 26.7305C250.665 27.2924 249.994 27.8543 249.03 28.3761C248.484 28.6971 247.772 28.9781 247.101 29.2992C248.568 31.0652 250.12 32.791 252.007 34.7176C253.39 33.4733 254.019 32.1488 254.061 30.8645C254.061 30.1822 253.6 29.9815 252.51 29.9815V29.0182H257.919V29.9815C256.577 29.9815 256.2 30.1822 255.613 31.5468C255.193 32.9516 254.313 34.4366 253.013 35.5604C254.271 36.6842 255.152 37.1659 256.2 37.1659C256.955 37.1659 257.625 36.8849 258.003 36.5237L258.758 37.3264ZM242.446 33.955C242.446 34.9584 242.782 35.8012 243.411 36.4033C244.166 37.0856 245.172 37.4067 246.304 37.4067C247.604 37.4067 248.694 36.9652 249.617 36.2829C247.939 34.6774 246.136 32.7108 244.585 30.7441C244.082 31.0652 243.62 31.3863 243.285 31.7876C242.698 32.3897 242.446 33.1121 242.446 33.955ZM246.975 22.5965C246.262 22.5965 245.591 22.7971 245.13 23.1985C244.711 23.5597 244.459 24.0815 244.459 24.7638C244.459 25.7271 245.046 26.7706 246.178 28.2155C246.807 27.9346 247.268 27.6536 247.646 27.3727C248.233 26.9713 248.61 26.5298 248.862 26.0883C249.113 25.6468 249.239 25.1652 249.239 24.6434C249.239 24.0815 249.03 23.5597 248.61 23.1985C248.275 22.7971 247.73 22.5965 246.975 22.5965Z" fill="#2F3542"/>
<path d="M268.611 23.8006C268.611 22.0747 268.444 21.8339 266.054 21.8339V20.7502H274.733V21.8339C272.343 21.8339 272.176 22.0747 272.176 23.8006V35.2795C272.176 37.0053 272.343 37.2462 274.733 37.2462V38.3298H266.054V37.2462C268.444 37.2462 268.611 37.0053 268.611 35.2795V23.8006Z" fill="#2F3542"/>
<path d="M280.226 29.219C281.023 28.0952 281.652 27.6135 282.658 27.6135C283.078 27.6135 283.539 27.7741 283.874 28.0952C284.252 28.4162 284.461 28.8577 284.461 29.4196C284.461 30.1421 284.042 30.6237 283.329 30.6237C282.826 30.6237 282.407 30.423 282.197 29.821C281.987 29.1387 281.862 28.9781 281.61 28.9781C281.275 28.9781 280.939 29.4598 280.226 30.5435V35.8414C280.226 37.2863 280.394 37.5271 281.61 37.5271V38.3298H275.824V37.5271C276.914 37.5271 277.04 37.4067 277.04 35.8414V30.9047C277.04 29.4999 276.914 29.3795 275.824 29.3795V28.6169C276.83 28.4965 278.423 28.1353 279.723 27.6135L280.101 27.7741L280.226 29.219Z" fill="#2F3542"/>
<path d="M291.086 38.5708C289.451 38.5708 288.109 38.2095 287.103 37.4871C285.887 36.6041 285.258 35.1191 285.258 32.9919C285.258 31.1456 285.845 29.7007 286.935 28.7776C287.942 27.9748 289.242 27.5735 291.086 27.5735C292.931 27.5735 294.357 28.015 295.363 28.8578C296.412 29.781 296.915 31.1857 296.915 32.9919C296.915 35.0789 296.328 36.4436 295.322 37.3265C294.315 38.1694 292.89 38.5708 291.086 38.5708ZM291.086 28.4966C290.458 28.4966 289.954 28.7374 289.577 29.2592C289.074 29.9817 288.822 31.1857 288.822 33.0721C288.822 34.9585 289.116 36.1626 289.619 36.8851C289.954 37.3667 290.499 37.6476 291.128 37.6476C291.757 37.6476 292.302 37.3667 292.638 36.8851C293.141 36.2027 293.435 34.9585 293.435 33.0721C293.435 31.1857 293.183 29.9817 292.68 29.2592C292.261 28.7374 291.757 28.4966 291.086 28.4966Z" fill="#2F3542"/>
<path d="M310.417 35.8414C310.417 37.1659 310.542 37.487 311.591 37.487V38.2897H306.014V37.487C307.02 37.487 307.104 37.3264 307.104 35.8013V30.985C307.104 30.2224 307.02 29.5802 306.643 29.1788C306.391 28.938 306.098 28.8176 305.595 28.8176C304.84 28.8176 303.959 29.4999 303.163 30.5836V35.8013C303.163 37.3264 303.205 37.487 304.169 37.487V38.2897H298.382V37.487C299.682 37.487 299.808 37.2863 299.808 35.8013V31.0251C299.808 29.5802 299.64 29.3795 298.382 29.3795V28.6169C299.598 28.4965 301.192 28.1754 302.576 27.6135L302.995 27.7741L303.079 29.3394H303.121C304.085 28.2958 305.301 27.6135 306.853 27.6135C307.985 27.6135 308.865 27.8543 309.452 28.336C310.081 28.8577 310.417 29.7006 310.417 30.9448V35.8414V35.8414Z" fill="#2F3542"/>
</svg>
