<svg width="9" height="7" viewBox="0 0 9 7" xmlns="http://www.w3.org/2000/svg">
    <path d="M5.13934 1.05727C5.18486 1.10247 5.22328 1.15252 5.2567 1.2045L8.74486 4.69282C9.08499 5.03327 9.08515 5.58504 8.7447 5.92565C8.40441 6.26611 7.85248 6.26611 7.51186 5.92565L4.50783 2.9213L1.48797 5.94083C1.14784 6.28144 0.595753 6.28144 0.255137 5.94083C0.0851526 5.77052 7.91266e-05 5.54759 7.91169e-05 5.32465C7.91071e-05 5.10172 0.0851526 4.8783 0.255461 4.70848L3.75896 1.2045C3.79237 1.15252 3.83063 1.10263 3.87632 1.05727C4.05066 0.88293 4.27957 0.799309 4.50783 0.803184C4.73625 0.799148 4.96548 0.88293 5.13934 1.05727Z" fill="#F39C12"/>
</svg>
