<svg width="9" height="7" viewBox="0 0 9 7" fill="none" xmlns="http://www.w3.org/2000/svg">
<path d="M5.13934 5.94273C5.18486 5.89753 5.22328 5.84748 5.2567 5.7955L8.74486 2.30718C9.08499 1.96673 9.08515 1.41496 8.7447 1.07435C8.40441 0.733893 7.85248 0.733893 7.51186 1.07435L4.50783 4.0787L1.48797 1.05917C1.14784 0.718557 0.595753 0.718557 0.255137 1.05917C0.0851526 1.22948 7.91266e-05 1.45241 7.91169e-05 1.67535C7.91071e-05 1.89828 0.0851526 2.1217 0.255461 2.29152L3.75896 5.7955C3.79237 5.84748 3.83063 5.89737 3.87632 5.94273C4.05066 6.11707 4.27957 6.20069 4.50783 6.19682C4.73625 6.20085 4.96548 6.11707 5.13934 5.94273Z" fill="#212121"/>
</svg>
