<svg  fill="none" xmlns="http://www.w3.org/2000/svg">
    <path d="M13.7923 5.2524C13.8199 5.2524 13.8423 5.27479 13.8423 5.3024V5.30244V5.30256V5.30302V5.30484V5.31194V5.33888V5.43505L13.8423 5.72687L13.8423 6.01869L13.8423 6.11485L13.8423 6.14179L13.8423 6.14888L13.8423 6.15067V6.1509C13.8423 6.15093 13.8423 6.15096 13.8423 6.151C13.8423 6.15111 13.8423 6.15122 13.8423 6.15134C13.8423 6.17895 13.82 6.20134 13.7923 6.20134H12.9125L11.8414 11.9134L13.7923 5.2524ZM13.7923 5.2524H11.5141L9.10543 1.23794C8.97102 1.01359 8.67955 0.940456 8.45445 1.07525L8.45441 1.07527C8.22966 1.21012 8.15694 1.50156 8.29177 1.72628L10.4074 5.2524H3.59389M13.7923 5.2524L5.52119 1.11811M5.52119 1.11811C5.72225 1.23875 5.78732 1.49947 5.66669 1.70052L3.53558 5.2524H3.59389M5.52119 1.11811C5.31931 0.997484 5.05942 1.06299 4.93879 1.26361L5.52119 1.11811ZM3.59389 5.2524L5.70956 1.72625C5.84439 1.50154 5.77167 1.21009 5.54692 1.07524L5.54684 1.07519C5.3213 0.940424 5.03077 1.0136 4.89594 1.23784L4.89591 1.23789L2.48725 5.25237M3.59389 5.2524L2.48725 5.25237M2.48725 5.25237H0.208984C0.18137 5.25237 0.158984 5.27476 0.158984 5.30237V6.15134C0.158984 6.17895 0.18137 6.20134 0.208984 6.20134H1.08878L2.15953 11.913C2.15953 11.913 2.15953 11.913 2.15953 11.913C2.27671 12.539 2.82381 12.993 3.46057 12.993H10.5408C11.1775 12.993 11.7246 12.539 11.8414 11.9134L2.48725 5.25237ZM10.9086 11.7387L10.9086 11.7388C10.8757 11.9157 10.7211 12.0441 10.5407 12.0441H3.46057C3.28028 12.0441 3.12558 11.9157 3.09229 11.7383L2.05401 6.20134H11.9473L10.9086 11.7387Z" stroke-width="0.1" stroke-linejoin="round"/>
</svg>
