<svg width="69" height="69" viewBox="0 0 69 69"  xmlns="http://www.w3.org/2000/svg">
	<rect width="69" height="69" />
	<path  clip-rule="evenodd"
		  d="M27.3299 21.25L27.3677 21.25L27.3974 21.25C27.8824 21.25 28.2913 21.25 28.6294 21.2778C28.9856 21.3072 29.3192 21.3707 29.6425 21.5284C29.9882 21.6971 30.2947 21.9364 30.5421 22.2308C30.7735 22.5062 30.9161 22.8145 31.031 23.1529C31.14 23.4742 31.2391 23.8709 31.3568 24.3414L31.364 24.3702L32.1181 27.3867L32.1271 27.4228C32.2672 27.9831 32.3861 28.4586 32.4433 28.8615C32.5042 29.2904 32.5059 29.7002 32.369 30.1207C32.2321 30.5412 31.9895 30.8714 31.6878 31.1822C31.4043 31.4742 31.0283 31.7886 30.5852 32.159L30.5566 32.1829L27.6087 34.6475C29.4061 37.9812 32.0172 40.5923 35.3509 42.3897L37.8154 39.4418L37.8394 39.4131C38.2098 38.97 38.5241 38.594 38.8161 38.3106C39.127 38.0089 39.4571 37.7662 39.8776 37.6293C40.2982 37.4924 40.7079 37.4942 41.1368 37.555C41.5397 37.6122 42.0152 37.7311 42.5755 37.8712L42.6117 37.8803L45.6281 38.6344L45.657 38.6416C46.1275 38.7592 46.5242 38.8584 46.8454 38.9674C47.1838 39.0823 47.4921 39.2248 47.7675 39.4562C48.062 39.7036 48.3013 40.0101 48.4699 40.3558C48.6276 40.6791 48.6911 41.0128 48.7205 41.369C48.7484 41.707 48.7483 42.1159 48.7483 42.601V42.6307V42.6685C48.7484 43.2765 48.7484 43.7895 48.7047 44.2103C48.6584 44.656 48.5578 45.068 48.312 45.4505C48.0612 45.8411 47.6661 46.1995 47.253 46.4113C46.8568 46.6144 46.456 46.6794 46.0254 46.6854C45.6256 46.6909 45.1515 46.6446 44.5994 46.5907L44.5609 46.587C41.068 46.2462 37.9309 45.3742 35.2028 44.0035C31.1519 41.9681 28.0302 38.8464 25.9948 34.7956C24.6241 32.0675 23.7521 28.9304 23.4113 25.4374L23.4076 25.399C23.3537 24.8469 23.3074 24.3728 23.3129 23.9729C23.3189 23.5424 23.3839 23.1415 23.587 22.7453C23.7988 22.3323 24.1573 21.9372 24.5478 21.6863C24.9303 21.4406 25.3424 21.34 25.788 21.2937C26.2088 21.25 26.7219 21.25 27.3299 21.25ZM36.7363 43.0711C39.078 44.118 41.7424 44.8049 44.7066 45.0941C45.3078 45.1527 45.6983 45.1898 46.0047 45.1855C46.2896 45.1816 46.4424 45.1412 46.5686 45.0765C46.7463 44.9854 46.9421 44.8078 47.05 44.6398C47.1216 44.5284 47.1796 44.3734 47.2127 44.0554C47.2474 43.7212 47.2483 43.2865 47.2483 42.6307C47.2483 42.1081 47.2477 41.7613 47.2256 41.4922C47.2043 41.2343 47.1666 41.1053 47.1218 41.0135C47.0451 40.8564 46.9364 40.7171 46.8025 40.6046C46.7243 40.5389 46.6083 40.471 46.3633 40.3878C46.1075 40.301 45.7713 40.2163 45.2643 40.0896L42.2479 39.3355C41.6416 39.1839 41.2423 39.085 40.926 39.0402C40.6272 38.9977 40.4681 39.0146 40.342 39.0556C40.216 39.0967 40.0774 39.1767 39.8608 39.3869C39.6316 39.6094 39.367 39.9245 38.9662 40.4039L36.7363 43.0711ZM26.9272 33.262L29.5945 31.0321C30.0739 30.6313 30.3889 30.3667 30.6114 30.1375C30.8216 29.9209 30.9017 29.7824 30.9427 29.6563C30.9838 29.5303 31.0006 29.3712 30.9582 29.0723C30.9133 28.7561 30.8144 28.3567 30.6629 27.7505L29.9088 24.734C29.782 24.2271 29.6973 23.8908 29.6105 23.6351C29.5274 23.39 29.4595 23.274 29.3938 23.1958C29.2813 23.062 29.142 22.9532 28.9848 22.8766C28.893 22.8318 28.764 22.794 28.5061 22.7728C28.237 22.7506 27.8902 22.75 27.3677 22.75C26.7118 22.75 26.2771 22.7509 25.943 22.7857C25.6249 22.8187 25.47 22.8767 25.3585 22.9483C25.1906 23.0562 25.0129 23.252 24.9218 23.4297C24.8571 23.5559 24.8167 23.7087 24.8128 23.9937C24.8086 24.3001 24.8456 24.6906 24.9042 25.2917C25.1935 28.2559 25.8803 30.9203 26.9272 33.262Z"
		  fill="white"/>
</svg>
