<svg width="42" height="42" viewBox="0 0 42 42" fill="none" xmlns="http://www.w3.org/2000/svg">
<path d="M21.8451 7.444L21.8451 7.44399C22.0315 7.27649 22.1579 7.1944 22.2819 7.14734C22.4065 7.10006 22.5584 7.07687 22.8151 7.07687C23.0718 7.07687 23.2238 7.10006 23.3483 7.14734C23.4724 7.1944 23.5987 7.27649 23.7851 7.44399L23.7851 7.444L24.179 7.79796L24.2552 13.904L24.3333 20.1665L24.3374 20.4911L24.6609 20.518L25.2468 20.5667L25.2469 20.5667L25.8329 20.6156L26.2197 20.6479L26.2197 20.2597L26.2203 14.7867C26.2206 12.1752 26.2246 10.8131 26.2654 10.0402C26.2857 9.65366 26.3145 9.43566 26.35 9.29116C26.3822 9.15983 26.4211 9.08332 26.4846 8.97858L26.4846 8.97856C27.02 8.0951 28.309 8.03727 28.921 8.86866C28.9851 8.95581 29.019 9.01045 29.0494 9.11877C29.0848 9.24519 29.1158 9.4491 29.1395 9.83385C29.1868 10.6009 29.2011 11.9846 29.2227 14.6735L29.2675 20.2435L29.2704 20.5978H29.6247H30.1659H30.7072H31.0644V20.2407V16.7768C31.0644 14.8764 31.0856 13.8576 31.1965 13.2345C31.2502 12.9325 31.3215 12.7478 31.4074 12.6103C31.4933 12.4727 31.6085 12.3585 31.7905 12.2145L31.7906 12.2145C32.0912 11.9765 32.5193 11.9028 32.9404 11.9992C33.361 12.0955 33.7263 12.3509 33.9088 12.7059C33.9305 12.7481 33.967 12.8487 33.9976 13.1477C34.0276 13.4414 34.0492 13.8922 34.063 14.6096C34.0907 16.042 34.087 18.4974 34.0673 22.797L34.023 32.4937L33.6423 33.2196C33.4334 33.6181 32.9162 34.2689 32.5071 34.6391C32.1749 34.9395 31.9451 35.1384 31.6858 35.2862C31.4347 35.4294 31.1397 35.5331 30.6775 35.6057C29.7263 35.7553 28.1598 35.7627 25.0143 35.7626L19.6154 35.7624L18.7516 35.343C18.7516 35.343 18.7516 35.343 18.7516 35.343C18.5812 35.2602 18.2172 34.9865 17.6497 34.4891C17.0962 34.0039 16.3808 33.3349 15.5206 32.4982C13.8009 30.8255 11.5128 28.4924 8.80286 25.6413L8.07771 24.8783L8.82995 24.2324L8.82998 24.2324C9.18851 23.9244 9.42228 23.7268 9.63305 23.6075C9.82164 23.5007 9.97696 23.4658 10.1798 23.4924C10.4063 23.5221 10.7062 23.6304 11.1714 23.862C11.6323 24.0913 12.221 24.4234 13.0202 24.8751C13.7488 25.287 14.4311 25.6619 14.9437 25.9344C15.1997 26.0705 15.4156 26.1822 15.5747 26.2604C15.6538 26.2993 15.7224 26.3317 15.7766 26.3551C15.8032 26.3666 15.8311 26.3781 15.8574 26.3872C15.8578 26.3874 15.8583 26.3876 15.859 26.3878C15.872 26.3925 15.9346 26.4149 16.0059 26.4149C16.1701 26.4149 16.2658 26.3123 16.2984 26.2704C16.3343 26.2243 16.3529 26.1787 16.3616 26.1556C16.3803 26.1053 16.3913 26.0515 16.3986 26.0087C16.4142 25.9173 16.4267 25.7923 16.4375 25.6402C16.4593 25.3323 16.4767 24.8714 16.4904 24.2507C16.5177 23.0075 16.5304 21.102 16.5304 18.4493V10.981L16.8771 10.6076C17.3506 10.0976 17.9747 9.97803 18.5881 10.2709L18.5882 10.2709C18.8321 10.3873 18.9401 10.4469 19.018 10.5329C19.0875 10.6095 19.1612 10.7419 19.2203 11.0634C19.3429 11.7297 19.3675 12.9708 19.4106 15.5301L19.4887 20.1681L19.4946 20.5192H19.8458H20.3928H20.9398H21.2925L21.2969 20.1665L21.375 13.904L21.4512 7.79796L21.8451 7.444ZM16.0928 25.7129C16.0923 25.7127 16.0914 25.7124 16.0904 25.712C16.0995 25.7146 16.1012 25.7158 16.0928 25.7129Z" stroke="black" stroke-opacity="0.6" stroke-width="0.714286"/>
<path d="M23.1628 26.0395C23.1628 27.234 22.1945 28.2024 21 28.2024C19.8055 28.2024 18.8371 27.234 18.8371 26.0395C18.8371 24.845 19.8055 23.8767 21 23.8767C22.1945 23.8767 23.1628 24.845 23.1628 26.0395Z" stroke="black" stroke-opacity="0.6" stroke-width="0.714286"/>
<ellipse cx="23.5203" cy="31.0804" rx="1.68" ry="1.68" fill="#1D7EEA"/>
<circle cx="28.14" cy="24.7797" r="2.1" fill="#1D7EEA"/>
<circle cx="29.3999" cy="31.0805" r="2.16286" stroke="black" stroke-opacity="0.6" stroke-width="0.714286"/>
</svg>
