<svg  fill="none" xmlns="http://www.w3.org/2000/svg">
<path d="M14.8906 8.992H1.66659V12.52H7.95459L0.370594 25H14.0746V21.472H7.35459L14.8906 8.992ZM36.8138 17.008C36.8138 14.872 36.0218 12.64 34.2938 11.008C32.6618 9.448 30.3818 8.632 27.9818 8.632C25.5818 8.632 23.3018 9.448 21.6698 11.008C19.9418 12.64 19.1498 14.872 19.1498 17.008C19.1498 19.12 19.9418 21.352 21.6698 22.984C23.3018 24.544 25.5818 25.36 27.9818 25.36C30.3818 25.36 32.6618 24.544 34.2938 22.984C36.0218 21.352 36.8138 19.12 36.8138 17.008ZM27.9818 12.664C29.1098 12.664 30.3098 13.096 31.1978 13.936C31.9418 14.68 32.4938 15.76 32.4938 17.008C32.4938 18.232 31.9418 19.336 31.1978 20.08C30.4538 20.824 29.4218 21.328 27.9818 21.328C26.5658 21.328 25.5098 20.8 24.7418 20.056C24.1418 19.48 23.4698 18.52 23.4698 17.08C23.4698 15.952 23.8778 14.776 24.7418 13.936C25.6058 13.072 26.8298 12.664 27.9818 12.664ZM60.0076 17.008C60.0076 14.872 59.2156 12.64 57.4876 11.008C55.8556 9.448 53.5756 8.632 51.1756 8.632C48.7756 8.632 46.4956 9.448 44.8636 11.008C43.1356 12.64 42.3436 14.872 42.3436 17.008C42.3436 19.12 43.1356 21.352 44.8636 22.984C46.4956 24.544 48.7756 25.36 51.1756 25.36C53.5756 25.36 55.8556 24.544 57.4876 22.984C59.2156 21.352 60.0076 19.12 60.0076 17.008ZM51.1756 12.664C52.3036 12.664 53.5036 13.096 54.3916 13.936C55.1356 14.68 55.6876 15.76 55.6876 17.008C55.6876 18.232 55.1356 19.336 54.3916 20.08C53.6476 20.824 52.6156 21.328 51.1756 21.328C49.7596 21.328 48.7036 20.8 47.9356 20.056C47.3356 19.48 46.6636 18.52 46.6636 17.08C46.6636 15.952 47.0716 14.776 47.9356 13.936C48.7996 13.072 50.0236 12.664 51.1756 12.664ZM69.3607 25L70.7287 15.784L74.4247 25H76.0807L79.9447 15.784L81.1207 25H85.2727L82.8727 8.992H78.7207L75.2887 17.536L72.0487 8.992H67.9447L65.2327 25H69.3607ZM95.6656 8.992H91.5136V25H95.6656V18.064L101.09 25H106.466L99.5296 16.576L105.89 8.992H100.754L95.6656 15.592V8.992ZM127.972 17.008C127.972 14.872 127.18 12.64 125.452 11.008C123.82 9.448 121.54 8.632 119.14 8.632C116.74 8.632 114.46 9.448 112.828 11.008C111.1 12.64 110.308 14.872 110.308 17.008C110.308 19.12 111.1 21.352 112.828 22.984C114.46 24.544 116.74 25.36 119.14 25.36C121.54 25.36 123.82 24.544 125.452 22.984C127.18 21.352 127.972 19.12 127.972 17.008ZM119.14 12.664C120.268 12.664 121.468 13.096 122.356 13.936C123.1 14.68 123.652 15.76 123.652 17.008C123.652 18.232 123.1 19.336 122.356 20.08C121.612 20.824 120.58 21.328 119.14 21.328C117.724 21.328 116.668 20.8 115.9 20.056C115.3 19.48 114.628 18.52 114.628 17.08C114.628 15.952 115.036 14.776 115.9 13.936C116.764 13.072 117.988 12.664 119.14 12.664Z" fill="#212121"/>
<path d="M33.2332 5.72261C32.0262 5.18766 31.531 3.70652 32.4722 2.78064C33.0364 2.22563 33.6829 1.73735 34.3967 1.33059C35.8581 0.497786 37.5463 0.0384579 39.2785 0.00231171C41.0107 -0.0338364 42.721 0.354572 44.2242 1.12551C44.9612 1.50347 45.6347 1.96632 46.2288 2.49973C47.2107 3.38123 46.7854 4.88332 45.6035 5.47006C44.5693 5.98347 43.3259 5.56769 42.3545 4.94353C42.2193 4.85665 42.0788 4.77575 41.9335 4.70125C41.1592 4.30412 40.2782 4.10405 39.3859 4.12267C38.4936 4.14129 37.624 4.3779 36.8712 4.80689C36.7392 4.88208 36.6117 4.96269 36.4891 5.04835C35.534 5.71533 34.2983 6.19462 33.2332 5.72261Z" fill="#212121"/>
<rect x="22" y="12" width="12" height="6" fill="#212121"/>
<rect x="45" y="12" width="12" height="6" fill="#212121"/>
</svg>
